<?xml version="1.0" standalone="no"?>
<!DOCTYPE svg PUBLIC "-//W3C//DTD SVG 1.1//EN" "http://www.w3.org/Graphics/SVG/1.1/DTD/svg11.dtd" >
<svg xmlns="http://www.w3.org/2000/svg">
<metadata>
Created by FontForge 20120731 at Mon Feb  8 19:23:33 2016
 By Ads
</metadata>
<defs>
<font id="iconfont" horiz-adv-x="1024" >
  <font-face 
    font-family="iconfont"
    font-weight="500"
    font-stretch="normal"
    units-per-em="1024"
    panose-1="2 0 6 3 0 0 0 0 0 0"
    ascent="896"
    descent="-128"
    x-height="792"
    bbox="-0.333333 -224 1275 896.281"
    underline-thickness="50"
    underline-position="-100"
    unicode-range="U+0078-E696"
  />
<missing-glyph horiz-adv-x="374" 
d="M34 0v682h272v-682h-272zM68 34h204v614h-204v-614z" />
    <glyph glyph-name=".notdef" horiz-adv-x="374" 
d="M34 0v682h272v-682h-272zM68 34h204v614h-204v-614z" />
    <glyph glyph-name=".null" horiz-adv-x="0" 
 />
    <glyph glyph-name="nonmarkingreturn" horiz-adv-x="341" 
 />
    <glyph glyph-name="x" unicode="x" horiz-adv-x="1001" 
d="M281 543q-27 -1 -53 -1h-83q-18 0 -36.5 -6t-32.5 -18.5t-23 -32t-9 -45.5v-76h912v41q0 16 -0.5 30t-0.5 18q0 13 -5 29t-17 29.5t-31.5 22.5t-49.5 9h-133v-97h-438v97zM955 310v-52q0 -23 0.5 -52t0.5 -58t-10.5 -47.5t-26 -30t-33 -16t-31.5 -4.5q-14 -1 -29.5 -0.5
t-29.5 0.5h-32l-45 128h-439l-44 -128h-29h-34q-20 0 -45 1q-25 0 -41 9.5t-25.5 23t-13.5 29.5t-4 30v167h911zM163 247q-12 0 -21 -8.5t-9 -21.5t9 -21.5t21 -8.5q13 0 22 8.5t9 21.5t-9 21.5t-22 8.5zM316 123q-8 -26 -14 -48q-5 -19 -10.5 -37t-7.5 -25t-3 -15t1 -14.5
t9.5 -10.5t21.5 -4h37h67h81h80h64h36q23 0 34 12t2 38q-5 13 -9.5 30.5t-9.5 34.5q-5 19 -11 39h-368zM336 498v228q0 11 2.5 23t10 21.5t20.5 15.5t34 6h188q31 0 51.5 -14.5t20.5 -52.5v-227h-327z" />
    <glyph glyph-name="uniE600" unicode="&#xe600;" 
d="M848 317l-44 -42q-14 -14 -20 -25.5t-8 -22.5t-2 -33v-99q0 -30 -20.5 -51.5t-48.5 -21.5h-471q-28 0 -48.5 21.5t-20.5 51.5v322q0 30 20.5 51.5t48.5 21.5h314q24 0 38 1t23.5 4t14.5 9l46 52l2 2t4.5 5.5t2.5 5.5q-1 6 -11 7t-46 1h-490q-14 0 -27 -5.5t-22.5 -15.5
t-15 -23.5t-5.5 -28.5v-482q0 -30 20.5 -51.5t49.5 -21.5h667q29 0 49.5 21.5t20.5 51.5v236q0 29 -1 39.5t-2 15.5q-1 4 -3.5 5.5t-6.5 1.5t-8 -3zM922 474q19 23 28 41t12 29.5t-3.5 25t-12.5 20.5t-21 24q-13 13 -19 18t-18.5 11.5t-24 4.5t-30 -11t-40.5 -27zM754 575
q-9 -9 -20 -21q-170 -180 -203 -213q-22 -22 -47 -107t-13 -97q12 -13 92.5 12t100.5 50l204 214q11 11 20 21z" />
    <glyph glyph-name="uniE601" unicode="&#xe601;" 
d="M802 400q-1 -12 -3 -26q-10 -74 -50.5 -133.5t-101.5 -93t-132 -33.5h-47l-8 -9q24 -45 66.5 -71.5t92.5 -26.5h46l92 -96q9 -10 22 -10q7 0 11 3q20 7 20 28v78q42 9 75.5 36.5t53 69t19.5 89.5q0 74 -44.5 129t-111.5 66zM442 332h-205q-3 0 -6 1t-5 3t-3.5 4t-2.5 5
t-1 6q0 7 5 12.5t13 5.5h205q3 0 6 -1t5 -2.5t3.5 -4t2.5 -5t1 -5.5q0 -5 -2.5 -9.5t-6.5 -7t-9 -2.5zM237 503h342q8 0 13 -5.5t5 -13.5q0 -7 -5 -12.5t-13 -5.5h-342q-3 0 -6 1t-5 2.5t-3.5 4t-2.5 5t-1 5.5q0 8 5 13.5t13 5.5zM756 381q-14 -97 -82 -160t-159 -63h-65
l-127 -132q-10 -11 -25 -11q-7 0 -14 3q-22 9 -22 33v111q-100 19 -158 108q-43 68 -44 151q0 109 71.5 186.5t172.5 77.5h211q101 0 172.5 -77.5t71.5 -186.5v-7q0 -4 -1 -8v-8q-1 -4 -1.5 -8.5t-0.5 -8.5z" />
    <glyph glyph-name="uniE602" unicode="&#xe602;" 
d="M88 303l49 51l373 -245l372 246l50 -52l-422 -289zM88 462l422 289l422 -289l-422 -289zM510 -50l372 246l50 -52l-422 -289l-422 289l49 51z" />
    <glyph glyph-name="uniE603" unicode="&#xe603;" 
d="M377 705q-39 0 -68 -17q-7 -5 -13 -10t-11 -12q-10 -15 -10 -32v-282q-57 0 -105.5 -28.5t-76.5 -77t-28 -105.5q0 -88 62 -150t150 -62q63 0 115 35l469 -35v87l95 4v701zM345 111l23 -104l-91 54l-92 -54l23 104l-80 70l106 10l43 98l42 -98l106 -10zM664 253l-200 15
l4 56l200 -15zM753 386l-347 27l5 56l346 -27zM904 68l-43 -2v511l-482 36h-1q-5 0 -10 0.5t-9 1.5l-8 2q-4 1 -7.5 2.5t-6.5 3.5q-6 3 -8 7q-2 2 -2 4t2 4q4 7 16 12q7 2 15.5 3.5t17.5 1.5l526 14v-601v0z" />
    <glyph glyph-name="uniE604" unicode="&#xe604;" 
d="M197 165q-12 0 -20.5 4.5t-8.5 14.5v318q0 19 20 25l9 2h527q7 0 14 -3.5t11.5 -10t4.5 -13.5v-217q29 10 59 10q20 0 39 -5v278h-781v-442q0 -7 3.5 -13t9.5 -9.5t12 -3.5h542q-1 10 -1 19q0 23 6 46h-446zM849 711q0 11 -7.5 18.5t-17.5 7.5h-50q0 1 -0.5 3t-2 6.5
t-3 7.5t-3.5 6t-4 3h-200q-4 0 -7 -6.5t-4 -12.5l-2 -7h-176l-8 23q-2 3 -4 3h-201q-3 0 -6 -6.5t-5 -12.5l-1 -7h-51q-10 0 -17.5 -7.5t-7.5 -18.5v-104h778v104zM486.5 632q-15.5 0 -26.5 11.5t-11 28t11 28t26.5 11.5t26.5 -11.5t11 -28t-11 -28t-26.5 -11.5zM586.5 632
q-15.5 0 -26.5 11.5t-11 28t11 28t26.5 11.5t26.5 -11.5t11 -28t-11 -28t-26.5 -11.5zM687 632q-10 0 -18.5 5.5t-14 14.5t-5.5 19.5t5.5 19.5t14 14.5t18.5 5.5t19 -5.5t14 -14.5t5 -19q0 -17 -11 -28.5t-27 -11.5zM786 632q-8 0 -15 3.5t-12 8.5t-8 12.5t-3 15.5
q0 16 11 27.5t26.5 11.5t27 -11.5t11.5 -28t-11.5 -28t-26.5 -11.5zM623 451v26h-326v-26h326zM811 154q-11 0 -19 -8.5t-8 -20.5t8 -20t19 -8q8 0 14.5 3.5t10 10t3.5 14.5q0 22 -20 28q-4 1 -8 1zM927 154h-14q-1 4 -2.5 8.5t-3.5 8.5l-4 8l13 13q4 5 5.5 10.5t0 11.5
t-5.5 11l-8 8q-6 6 -15.5 6t-15.5 -6l-13 -14q-3 2 -6 3l-6 4q-3 1 -6.5 2t-6.5 2v16q0 6 -3 11.5t-8 8.5t-11 3h-11q-9 0 -15.5 -7t-6.5 -16v-16q-13 -3 -25 -11l-13 14l-6 4q-3 2 -6.5 2.5t-6.5 0t-6.5 -2.5t-5.5 -4l-8 -8q-4 -5 -5.5 -11t0 -11.5t5.5 -10.5l13 -13
q-6 -12 -10 -25h-14q-10 0 -16 -7t-6 -16v-12q0 -5 1.5 -9t4.5 -7t7 -5t9 -2h14q4 -13 10 -25l-13 -14q-7 -7 -7 -16.5t7 -15.5l8 -9q6 -6 15.5 -6t15.5 6l14 15q5 -4 11 -6.5t13 -4.5v-15q0 -9 6.5 -15.5t15.5 -6.5h11q9 0 15.5 6.5t6.5 15.5v15q13 4 24 11l14 -15
q6 -6 15.5 -6t15.5 6l8 9q4 4 5.5 10t0 12t-5.5 10l-13 14q3 6 5.5 12.5t4.5 12.5h14q6 0 11.5 3t8 8.5t2.5 11.5v12q0 9 -6 16t-16 7zM811 61q-25 0 -42.5 18.5t-17.5 45.5q0 7 1.5 14t4.5 13.5t7 12t9.5 9.5t11.5 7t12.5 5t13.5 2q26 0 43.5 -18.5t17.5 -44.5
q0 -40 -34 -57q-13 -6 -27 -7z" />
    <glyph glyph-name="uniE605" unicode="&#xe605;" 
d="M396 648h230v-69h-230v69zM281 464h345v-70h-345v70zM281 322h462v-70h-462v70zM281 184h184v-70h-184v70zM281 695h69v-164h-69v164zM674 695h69v-164h-69v164zM792 648v-69h45v-604h-650v604h45v69h-115v-48v-21v-674h46h696h48v674v21v48h-115z" />
    <glyph glyph-name="uniE606" unicode="&#xe606;" 
d="M92 721h831v-170h-831v170zM92 443h185v-551h-185v551zM367 443h556v-551h-556v551z" />
    <glyph glyph-name="uniE607" unicode="&#xe607;" 
d="M124 781zM686 257zM724 533l-243 -12q-19 -1 -31.5 8.5t-12 25.5t17.5 32.5t22 23.5t8.5 21.5t1.5 38.5q-4 39 -36 56.5t-73 17.5q-39 0 -73 -19.5t-45 -53.5q-19 -55 17 -81q1 -1 7 -5t8 -6t6.5 -6t5 -7.5t0 -8.5t-4.5 -10.5t-12 -11.5q-19 -16 -217 3q-1 -19 -2 -45.5
t-2.5 -93.5t2.5 -78q3 -22 23 -27t37 17q13 16 35.5 19.5t44 -5.5t38 -33t18.5 -56q1 -19 -4 -35t-14 -26.5t-20 -18t-23 -9.5t-23.5 -1t-20.5 5.5t-13 12.5q-10 17 -29 25t-35 1.5t-17 -27.5q-4 -68 28 -286q15 -4 38 -8.5t74 -10.5t77 -2q20 3 26 29.5t-12 43.5
q-5 4 -8.5 13t-4 20.5t1.5 24t9.5 23.5t19 19.5t31 12.5t44.5 2q27 -3 44 -13.5t23 -24t6 -28t-5.5 -25.5t-13.5 -16q-11 -7 -14 -21.5t7.5 -29.5t33.5 -21q21 -4 52 -3.5t69 5.5t69.5 10t53.5 9.5t21 4.5l-16 124q-6 63 -2 89q4 19 16 26.5t26 4t25.5 -9t14.5 -10.5
q26 -34 64 -35t67 32t29 88q0 76 -39 107.5t-80 23t-49 -31.5q-6 -16 -18 -23.5t-24 -6.5t-21.5 7.5t-11.5 16.5q-14 64 8 239zM724 533z" />
    <glyph glyph-name="uniE608" unicode="&#xe608;" 
d="M928 505l-416 295l-416 -295l416 -294zM928 505zM898 406l-386 -274l-386 274l-30 -22v0l416 -295l416 295zM898 406zM898 284l-386 -273l-386 273l-30 -21v0l416 -295l416 295zM898 284z" />
    <glyph glyph-name="uniE609" unicode="&#xe609;" horiz-adv-x="1025" 
d="M435 447h-389q-6 0 -10 4.5t-4 9.5v389q0 3 1 5.5t3 4.5t4.5 3t5.5 1h389q5 0 9.5 -4t4.5 -10v-389q0 -3 -2 -6.5t-5.5 -5.5t-6.5 -2zM979 447h-389q-6 0 -10 4.5t-4 9.5v389q0 4 2 7t5 5t7 2h389q3 0 6.5 -2t5.5 -5t2 -7v-389q0 -5 -4.5 -9.5t-9.5 -4.5zM435 -96h-388
q-13 2 -14 14v389q0 5 4 9.5t10 4.5h388q6 0 10.5 -4.5t4.5 -9.5v-389q0 -6 -4.5 -10t-10.5 -4zM979 -96h-389q-6 0 -10 4t-4 10v389q0 5 4 9.5t10 4.5h389q3 0 6.5 -2t5.5 -5.5t2 -6.5v-389q0 -6 -4.5 -10t-9.5 -4z" />
    <glyph glyph-name="uniE60A" unicode="&#xe60a;" 
d="M841 384q0 -89 -44 -165t-120 -120t-165 -44q-34 0 -66.5 6.5t-61.5 19t-56 30.5t-49 40t-40 49t-30.5 56t-19 61.5t-6.5 66.5q0 131 90.5 226t220.5 102v-99q0 -2 0.5 -3.5t1.5 -3t2 -1.5q3 -2 5 -2l5 2l237 137q2 1 3.5 3t1.5 4.5t-1.5 4.5t-3.5 4l-237 137q-5 2 -10 0
q-1 -1 -2 -2.5t-1.5 -3t-0.5 -2.5v-102q-40 -1 -78 -10.5t-72 -25.5t-65 -38t-57 -49t-47 -59t-35.5 -66.5t-22 -73.5t-7.5 -79q0 -82 32 -156.5t85.5 -128t128 -85.5t156.5 -32q109 0 201.5 54t146.5 146.5t54 201.5h-73z" />
    <glyph glyph-name="uniE60B" unicode="&#xe60b;" 
d="M254 386.5q0 -15.5 7.5 -28t20.5 -20t28 -7.5q6 0 12.5 1.5t12 4t10.5 6.5t8.5 9t6.5 10.5t4.5 11.5t1.5 13q0 23 -16.5 39t-39.5 16q-15 0 -28 -7t-20.5 -20t-7.5 -28.5zM848 722h-673q-22 0 -43 -9t-35.5 -24t-23.5 -35.5t-9 -43.5v-447q0 -30 15 -56t40.5 -41
t55.5 -15h362l156 -158q13 -13 31 -13t31 13t13 31.5t-13 31.5l-169 172q-16 16 -38 13h-351q-18 0 -31 13t-13 31v400q0 19 13 33.5t31 14.5h628q18 0 31 -14.5t13 -33.5v-400q0 -18 -13 -31t-31 -13h-16h-7q-12 0 -22.5 -6t-16.5 -16.5t-6 -22.5q0 -18 13 -31.5t32 -13.5
h3h43q46 0 78.5 33t32.5 79v447q0 47 -32.5 79.5t-78.5 32.5zM455 387q0 -16 7.5 -28.5t20.5 -20t28 -7.5q11 0 21.5 4.5t18 12t12 17.5t4.5 22q0 23 -16.5 39t-39.5 16t-39.5 -16t-16.5 -39zM712 442q-15 0 -28 -7t-20.5 -20t-7.5 -28.5t7.5 -28t20.5 -20t28 -7.5
q23 0 39.5 16t16.5 40q0 15 -7.5 28t-20.5 20t-28 7z" />
    <glyph glyph-name="uniE60C" unicode="&#xe60c;" 
d="M704 678q-12 0 -24 -1t-24 -3.5t-23.5 -6t-22.5 -8t-22 -10.5t-21 -12.5t-19.5 -14t-18.5 -16t-17 -17.5q-23 27 -54 47.5t-66.5 31t-71.5 10.5q-99 0 -167 -67.5t-68 -166.5q0 -27 6 -54t14.5 -51t26 -51.5t33.5 -50t43.5 -53t49.5 -53t59 -57t64 -58.5t72 -63l59 -56
l60 56q7 6 21 19q50 46 74.5 69t65.5 62.5t61 61.5t48.5 55.5t42 57.5t28.5 53.5t20.5 56.5t5.5 56q0 99 -67.5 166.5t-167.5 67.5zM517 12h-5l-4 5q-56 50 -84.5 75.5t-71 66.5t-64 64.5t-48.5 57t-39 57.5t-21 51.5t-9 54.5q0 64 42.5 106.5t106.5 42.5q24 0 47.5 -7.5
t44 -21t36.5 -32.5t26 -41h81q10 29 33.5 52.5t54 36.5t61.5 13q64 0 107 -42.5t43 -106.5q0 -26 -9 -53.5t-20.5 -51t-38 -57t-47 -56.5t-63 -64t-69 -66t-82.5 -76q-6 -5 -8 -8z" />
    <glyph glyph-name="uniE60D" unicode="&#xe60d;" 
d="M874 576q68 69 62 63q34 34 0 67q-34 35 -68 68q-34 35 -68 0l-62 -63zM103 77l-34 -170l170 35zM699 673l-556 -556l135 -136q-79 -79 556 556z" />
    <glyph glyph-name="uniE60E" unicode="&#xe60e;" 
d="M915 396h-79l-6 15q-4 10 -7.5 19t-8.5 20t-9 19l55 54q14 13 14 31.5t-13 31.5l-64 63q-9 9 -20.5 12t-23 -0.5t-20.5 -11.5l-52 -56q-14 8 -42 19t-31 12v79q0 18 -16 31.5t-35 13.5h-90q-7 0 -14.5 -2.5t-14 -6.5t-11.5 -9.5t-8 -12.5t-3 -14v-79q-3 -1 -31 -12
t-42 -19l-54 56q-13 13 -31.5 13t-31.5 -13l-63 -64q-5 -5 -8.5 -11.5t-4 -13.5t0.5 -13.5t4 -13t8 -11.5l56 -53q-6 -10 -12 -24.5t-11.5 -28.5t-7.5 -20h-79q-9 0 -17.5 -4.5t-14.5 -11.5t-9.5 -16.5t-3.5 -18.5v-90q0 -12 6 -24t16.5 -19.5t22.5 -7.5h79q1 -3 12 -31
t19 -42l-56 -54q-13 -13 -13 -31.5t13 -31.5l64 -63q13 -13 31.5 -13t31.5 13l53 56q14 -8 42 -19t31 -12v-79q0 -18 16 -31.5t35 -13.5h90q19 0 35 13.5t16 31.5v79q3 1 31 12t42 19l54 -55q13 -14 31.5 -14t31.5 13l63 64q9 9 12 20.5t-0.5 23t-11.5 20.5l-56 52
q8 14 19 42t12 31h79q18 0 31.5 16t13.5 35v90q0 19 -13.5 35t-31.5 16zM512 98q-84 0 -143 59t-59 143t59 143t143 59q33 0 64 -10t55.5 -29t43.5 -43.5t29 -55.5t10 -64q0 -84 -59 -143t-143 -59z" />
    <glyph glyph-name="uniE60F" unicode="&#xe60f;" 
d="M514 -30q-47 0 -93 8t-89 24q-85 32 -150 90t-101 134q-18 39 -27.5 80t-9.5 83q0 86 37 164q36 75 101 133.5t150 89.5q87 33 182.5 33t182.5 -33q84 -31 149.5 -89t101.5 -134q18 -39 27.5 -80t9.5 -84q0 -85 -37 -163q-18 -38 -43.5 -71.5t-57.5 -62.5
q-66 -58 -150 -90q-87 -32 -183 -32zM514 790q-122 0 -226 -54t-164 -146t-60 -200.5t60 -201t164 -146t226.5 -53.5t226 53.5t164 146t60.5 200.5q0 82 -35.5 156t-96 127.5t-144 85.5t-175.5 32zM680 522q0 -43 -13.5 -83.5t-38 -73t-57 -56.5t-72.5 -37.5t-83 -13.5
q-72 0 -132.5 35.5t-96 96t-35.5 132t35.5 132.5t96 96t132.5 35q109 0 186.5 -77t77.5 -186zM883 191q0 -63 -44.5 -107.5t-107.5 -44.5t-107.5 44.5t-44.5 107.5t44.5 107.5t107.5 44.5q14 0 27.5 -2.5t25.5 -7.5t23.5 -11.5t21.5 -15t18.5 -18t15 -21t11 -24t7 -26
t2.5 -26.5z" />
    <glyph glyph-name="uniE610" unicode="&#xe610;" horiz-adv-x="1053" 
d="M394 363q95 0 162 67t67 161t-67 161.5t-161.5 67.5t-161.5 -67.5t-67 -161.5q0 -18 3 -36.5t8.5 -35.5t14 -32.5t18.5 -30t23 -27t27 -22.5t29.5 -18.5t32.5 -14t35.5 -8.5t36.5 -3zM394 363zM394 284q105 0 194.5 -45t143 -122t57.5 -169h-789q3 69 35 131t84.5 107
t124.5 71.5t150 26.5zM394 284zM624 471q-6 -12 -13 -23.5t-15 -22.5h457v46h-429zM631 249q36 -20 68 -47h354v47h-422zM804 37q8 -22 13 -45h236v45h-249z" />
    <glyph glyph-name="uniE611" unicode="&#xe611;" 
d="M215 170q41 47 90.5 82.5t95.5 54.5t92.5 31t85 15t68.5 3t47 -2l16 -2v-184l310 279l-310 278v-185q-300 3 -429 -194q-56 -87 -66 -176zM110 602h331v103h-435v-103h76l-76 -1v-620h104v621zM834 -19h-828v-103h828h103v290h-103v-187z" />
    <glyph glyph-name="uniE612" unicode="&#xe612;" 
d="M116 218q-25 -59 -28.5 -108.5t16.5 -59.5q14 -7 34.5 7.5t40.5 45.5q16 -66 76 -116q-31 -12 -48.5 -29t-17.5 -38q0 -16 12.5 -31t33.5 -26t50.5 -17.5t61.5 -6.5q13 0 25.5 1t24.5 3t23 5t20.5 7t18 8t16 9.5t13 11t9.5 11.5t6 12h5h8h6q4 -14 18 -26.5t34.5 -21.5
t47.5 -14.5t56 -5.5q65 0 111 24t46 57q0 21 -17.5 38t-48.5 29q60 50 76 116q21 -31 41 -45.5t34 -7.5q20 10 16.5 59.5t-28.5 108.5q-20 46 -44.5 78t-45.5 40q1 6 1 12q0 12 -2 23.5t-6 21.5t-10 19v4q0 17 -7 31q-5 125 -81.5 207t-200.5 82q-50 0 -93.5 -14.5t-77 -41
t-58 -62.5t-38 -79.5t-15.5 -91.5q-7 -14 -7 -31v-4q-8 -14 -13 -30t-5 -34q0 -6 1 -12q-21 -8 -45.5 -40t-44.5 -78z" />
    <glyph glyph-name="uniE613" unicode="&#xe613;" 
d="M743 310q-17 4 -21.5 10.5t-1.5 11.5l4 6q0 1 1.5 3.5t4.5 9.5t5 14t2.5 17.5t-0.5 20t-6.5 20t-14.5 19.5q-15 15 -39.5 20t-49 1t-47 -10t-36.5 -12l-14 -6q-10 -3 -17.5 -4.5t-11.5 0t-6 3.5t-1.5 8t1 10t3 13.5t3.5 15.5q0 13 -2 24.5t-7 25.5t-16 23t-26.5 14.5
t-41 3t-57.5 -13.5q-37 -13 -77 -39.5t-68 -52t-55 -56t-35.5 -41.5t-13.5 -18q-72 -96 -70 -182l1 -7q6 -53 31.5 -94.5t61 -67.5t84 -44t93 -26.5t94.5 -12.5q81 -6 168 13.5t162 66.5t106 113q16 33 19 62t-5 49.5t-20.5 37t-29.5 27t-30 16.5t-24 8zM408 -31
q-118 -6 -201 46t-83 131q0 78 82.5 134.5t201.5 61.5q120 6 202.5 -39.5t82.5 -122.5q0 -81 -85 -143q-84 -63 -200 -68zM377 273q-114 -13 -136 -114q-7 -29 -4 -53q-1 -47 43 -71q71 -35 134 -21t101 64q15 18 20 45.5t-2.5 55.5t-24.5 51.5t-51.5 35.5t-79.5 7z
M337 64.5q-22 -2.5 -37.5 9t-15.5 29.5q0 19 14.5 35t35.5 19q25 2 40.5 -10t15.5 -31t-15.5 -34t-37.5 -17.5zM430 144q-7 -5 -15 -4.5t-12 7.5q-5 6 -3 15.5t9 14.5q6 4 12 5t10.5 -1t6.5 -6q3 -5 3 -10.5t-3 -11t-8 -9.5zM820 375h4q3 0 5 1l4 2q2 1 3.5 2.5t3 3.5t2.5 4
l2 4q1 2 1 4v2v1q14 124 -84 143q-30 6 -58 1q-10 0 -18 -7.5t-8 -18.5t8 -18.5t18 -7.5q34 7 54 0.5t28 -21.5t10 -30.5t0 -27.5l-1 -12q0 -4 1 -8t3.5 -7t6 -5.5t7.5 -3.5t8 -1zM801 678q-55 13 -129 -1q-1 0 -2 -1t-2 -1h-1q-12 -4 -19.5 -14t-7.5 -23q0 -8 3 -15t8 -12
t12 -8t14 -3q21 3 34 8q6 1 19.5 2.5t36 -4.5t45 -14.5t46.5 -28.5t40 -47q29 -65 12 -126q-8 -18 -8 -36q0 -15 11 -24.5t27 -9.5q10 0 16 1.5t12 9t8 21.5q13 43 15 81.5t-5 69t-21.5 57t-33 45.5t-41.5 34t-45 24.5t-44 14.5z" />
    <glyph glyph-name="uniE614" unicode="&#xe614;" 
d="M514 736q-13 0 -25.5 -1t-25.5 -2q-30 -4 -59 -11t-57 -19l304 -303q5 -4 5 -5v317q-6 2 -13 4.5t-14 4.5q-28 7 -57 11t-58 4zM828 606l-4 4l-4 4l-4 4l-4 4q-2 2 -4.5 4t-4.5 3.5t-4 3.5t-4.5 3.5t-4.5 3.5q-47 38 -102 61q2 -423 0 -437l224 225q-6 12 -13 25
q-30 52 -71 92zM927 454l-303 -304q-5 -4 -6 -5h317q2 4 3.5 8.5t2.5 9t3 9.5q7 28 11 57t4 58q0 25 -3 51q-7 60 -29 116zM485 111l225 -224q13 6 25 13q51 30 92 71q17 17 34 38q37 47 61 102q1 0 -24 0h-61h-83q-46 0 -91.5 -0.5t-84.5 -0.5t-64.5 0.5t-28.5 0.5z
M370 182v-318l6 -2l8 -2l6 -2q4 -1 7 -2q57 -15 115 -15q13 0 25.5 0.5t25.5 2.5q30 3 59 10.5t57 18.5l-17 17q-17 16 -43.5 42.5t-59 58.5t-65.5 65l-60 60q-27 27 -45 45.5t-19 20.5zM338 314l-225 -224q6 -12 14 -25q29 -52 71 -93l8 -8q5 -5 10 -9.5t10 -8t9 -7.5
q48 -38 103 -61q0 -1 -0.5 109.5t-0.5 207.5t1 119zM82 404q-7 -28 -11 -57t-4 -58q0 -9 0.5 -17.5t1 -16.5t1.5 -17q7 -60 29 -115q298 301 309 308h-317q-2 -3 -3 -7l-2 -6q-1 -4 -2 -7t-2 -7zM289 674q-51 -29 -92 -70q-17 -17 -34 -38q-19 -24 -34 -49.5t-27 -53.5h437
l-225 225q-13 -7 -25 -14z" />
    <glyph glyph-name="uniE615" unicode="&#xe615;" 
d="M684 448h6q4 0 7 -0.5t6 -0.5t6 -0.5t7 -0.5q-22 99 -115.5 164t-214.5 65q-44 0 -86 -10t-78 -27.5t-66 -43t-51 -56t-33 -66.5t-12 -74q0 -129 131 -221l-33 -98l114 58q84 -17 114 -17q17 0 31 2q-10 33 -10 68q0 70 36.5 129.5t100.5 94t140 34.5zM509 536
q12 0 21 -5t14 -14t5 -21q0 -19 -11 -30t-29 -11q-13 0 -24 5t-18.5 14.5t-7.5 21.5q1 17 16 28.5t34 11.5zM280 455q-19 0 -34 11.5t-15 29t15 29t34 11.5t30 -11t11 -29q0 -32 -29 -40zM982 194q0 97 -83 166.5t-194 69.5q-116 0 -197 -69t-81 -167q0 -65 37 -119.5
t100.5 -86t140.5 -31.5q15 0 34 3t30 5.5t34 7.5l89 -49l-24 82q25 19 45 40t36 44.5t24.5 50t8.5 53.5zM615 234q-12 0 -22.5 10.5t-10.5 22.5t10.5 22t22.5 10q9 0 16.5 -2.5t13 -7t8.5 -10.5t3 -12q0 -13 -12 -23t-29 -10zM794 234q-12 0 -22 10.5t-10 22.5t10 22t22 10
q9 0 17 -2.5t13 -7t8 -10.5t3 -12q0 -4 -1 -7t-3 -6.5t-4.5 -6.5t-6 -5t-7.5 -4t-9 -3t-10 -1z" />
    <glyph glyph-name="uniE616" unicode="&#xe616;" 
d="M512 -92q-246 0 -405 218q-67 92 -95 180q3 8 8 22.5t25.5 56t45 79t67 83.5t91 79t117.5 55.5t146 22.5t146 -22.5t117.5 -56t91 -79t67 -83.5t45 -79t25.5 -55.5t8 -22.5q-3 -8 -8 -22.5t-25.5 -56t-45 -79t-67 -83.5t-91 -79t-117.5 -55.5t-146 -22.5zM512 571
q-68 0 -125.5 -35.5t-91 -96.5t-33.5 -133q0 -110 73 -187.5t177 -77.5t177 77.5t73 187.5t-73 187.5t-177 77.5zM512 173q-52 0 -88.5 39t-36.5 94v3l1 4q18 -7 30 -7q39 0 66.5 29t27.5 70q0 8 -1.5 16t-4.5 17h2h4q52 0 88.5 -38.5t36.5 -93.5t-36.5 -94t-88.5 -39z" />
    <glyph glyph-name="uniE617" unicode="&#xe617;" 
d="M805 227q-35 0 -65.5 -15.5t-51.5 -42.5l-307 183q3 11 4.5 21.5t1.5 20.5q0 4 -1 13l307 185q44 -51 112 -51q60 0 103 42.5t43 103.5t-43 103.5t-103.5 42.5t-103.5 -42.5t-43 -103.5q0 -23 8 -46l-305 -158q-23 36 -60 57.5t-81 21.5q-70 0 -119 -49t-49 -119
q0 -45 22.5 -83.5t61 -61t84.5 -22.5q74 0 124 56l319 -165q-2 -9 -3.5 -18.5t-1.5 -18.5q0 -61 43 -103.5t103.5 -42.5t103.5 42.5t43 103.5q0 40 -19.5 73.5t-53.5 53t-73 19.5z" />
    <glyph glyph-name="uniE618" unicode="&#xe618;" 
d="M512 -212q-139 0 -257 68.5t-186.5 186.5t-68.5 257t68.5 257t186.5 186.5t257 68.5t257 -68.5t186.5 -186.5t68.5 -257t-68.5 -257t-186.5 -186.5t-257 -68.5zM768 364h-192v192h-128v-192h-192v-128h192v-192h128v192h192v128z" />
    <glyph glyph-name="uniE619" unicode="&#xe619;" 
d="M511 583l-413 -399h234l-2 -327h361v328l240 3zM67 746h889v-131h-889v131z" />
    <glyph glyph-name="uniE61A" unicode="&#xe61a;" horiz-adv-x="1071" 
d="M481 539q0 -8 3 -15.5t8 -12.5t12.5 -8t15.5 -3h202q16 0 27.5 11.5t11.5 27.5v128q0 6 -1.5 11t-4 9.5t-6 8t-8 6t-9.5 4t-10 1.5h-202q-16 0 -27.5 -11.5t-11.5 -28.5v-128zM178 211h524v-146h-524v146zM130 539q0 -11 5.5 -20t14.5 -14t20 -5h201q11 0 20 5t14.5 14
t5.5 20v128q0 17 -12 28.5t-28 11.5h-201q-8 0 -15.5 -3t-13 -8.5t-8.5 -12.5t-3 -16v-128zM57 -92q0 -10 5.5 -19.5t14.5 -14.5t20 -5h694q17 0 28.5 11.5t11.5 27.5v168l210 -142v422l-210 -142v173q0 11 -5 20t-14.5 14t-20.5 5h-694q-17 0 -28.5 -11t-11.5 -28v-479z
M1099 -48z" />
    <glyph glyph-name="uniE61B" unicode="&#xe61b;" 
d="M67 296l173 173q7 29 -17 39q-6 3 -13 5t-14.5 2.5t-14.5 1t-15 1.5t-14 3q-31 6 -53 32.5t-22 57.5q0 21 9.5 41t19.5 30l9 11q4 4 11 10.5t28.5 17t42.5 10.5q31 -1 57.5 -22.5t32.5 -52.5q2 -9 3 -23.5t3 -26.5t6 -21q6 -14 17.5 -17.5t22.5 0.5l177 177l169 -169
q5 -26 -17 -35q-4 -2 -9 -3.5t-9.5 -2t-9.5 -1.5t-10 -1.5t-9.5 -0.5t-10 -1t-9.5 -2q-15 -3 -28 -11t-22.5 -19.5t-15 -26t-6.5 -28.5q0 -7 1.5 -14.5t3.5 -13.5t4.5 -12t5.5 -10.5t6.5 -9.5t6 -7.5t5 -5.5t3.5 -3.5t1 -1.5q4 -4 10.5 -10t27 -16.5t40 -10t37.5 10t31 26
t17 35.5q1 6 3.5 30.5t8.5 37.5q9 21 35 16l181 -181l-188 -188q-23 -4 -32 16q-5 12 -7.5 36t-3.5 30q-6 28 -30.5 48.5t-53.5 21.5q-19 0 -38 -9t-28 -18l-9 -9q-4 -4 -10 -10.5t-16 -26t-10 -39.5q0 -14 6 -28t15 -25t22 -19t27 -11q7 -2 16.5 -3t17 -1.5t16.5 -2
t16 -4.5q20 -9 16 -32l-174 -175l-170 169q-11 5 -23.5 1.5t-18.5 -18.5q-3 -5 -4.5 -11t-2.5 -12t-1.5 -12.5t-1 -12.5t-1.5 -13t-2 -12q-7 -32 -34 -54.5t-59 -23.5q-22 0 -43 10t-31 20l-11 10q-4 4 -10.5 11.5t-18 29.5t-10.5 43q0 33 23 60t54 33q9 2 24 3.5t27.5 3.5
t22.5 6q26 11 17 43z" />
    <glyph glyph-name="uniE61C" unicode="&#xe61c;" 
d="M755 471l10 100h-506l27 -305h350l-13 -131l-112 -30l-112 30l-8 80h-100l13 -158l207 -58h2v1l205 57l29 310h-368l-9 104h385zM110 739h804l-73 -822l-330 -92l-328 92z" />
    <glyph glyph-name="uniE61D" unicode="&#xe61d;" horiz-adv-x="1055" 
d="M1055 408zM866 681q0 6 -2.5 12t-7 10.5t-10.5 7t-12 2.5h-735q-7 0 -13 -2.5t-10 -7t-6.5 -10.5t-2.5 -12v-576q0 -13 9 -22.5t23 -9.5h27q13 0 22.5 9.5t9.5 22.5v483q0 6 2.5 12t7 10.5t10.5 7t12 2.5h644q9 0 16 4.5t11.5 11.5t4.5 16v29zM925 558h-671
q-16 0 -27 -10.5t-11 -26.5v-597q0 -7 3 -14t8 -12t12 -8t15 -3h671q15 0 26 11t11 26v597q0 16 -11 26.5t-26 10.5zM850 -1h-522v186l112 112l187 -186l112 112l111 -112v-112zM776 297q-20 0 -37.5 10t-27.5 27.5t-10 37.5q0 31 22 52.5t53 21.5t52.5 -21.5t21.5 -52.5
t-21.5 -53t-52.5 -22zM776 297z" />
    <glyph glyph-name="uniE61E" unicode="&#xe61e;" 
d="M908 172q0 -93 -45.5 -172t-124.5 -124.5t-172 -45.5q-90 0 -166.5 43t-122.5 116q-127 -8 -155 -9q-23 0 -43.5 17t-22.5 42q-2 26 15 45t44 21q15 1 43.5 2.5t49.5 2.5l21 1q-5 30 -5 61q0 85 39 160q-8 2 -20 14q-5 5 -33 35t-57.5 61.5t-37.5 39.5q-17 16 -17.5 41
t19.5 47q24 19 48.5 16t39.5 -19q124 -131 128 -135l5 -5q26 24 57 41q-44 191 -53 226q-2 9 -1.5 17.5t3 16t7 14t10.5 12t13 9.5t15 6q24 6 46.5 -8t28.5 -39l49 -212q26 4 53 4h12q6 0 11.5 -0.5t11.5 -1.5q0 3 0.5 8t2.5 20.5t3.5 29.5t4 32.5t4 34t3 29t2.5 21.5
q2 17 12.5 30.5t25.5 19.5t31 5q24 -3 40.5 -24t14.5 -46q-21 -179 -22 -185q0 -3 -0.5 -5.5t-0.5 -3.5l-1 -1q38 -19 71 -47q45 81 61 114q8 16 22.5 24.5t30.5 8t31 -7.5q14 -7 23 -21.5t9.5 -30.5t-6.5 -32l-88 -165q33 -70 33 -148zM566 390q-90 0 -154 -64t-64 -154
t64 -154t154 -64q59 0 109.5 29t79.5 79.5t29 109.5q0 90 -64 154t-154 64zM513 195q0 -10 -7 -17.5t-18 -7.5q-7 0 -12.5 3.5t-9 9t-3.5 12.5v67q0 6 3.5 12t9 9t12.5 3q11 0 18 -7t7 -17v-67zM685 195q0 -7 -3 -12.5t-9 -9t-13 -3.5q-10 0 -17 7.5t-7 17.5v67q0 10 7 17
t17 7q11 0 18 -7t7 -17v-67zM453 73q-10 9 -2 20q9 10 20 2v-1l5 -4q30 -22 66.5 -29t72 2.5t63.5 34.5q10 9 19 -2q9 -10 -1 -19q-50 -43 -116.5 -46t-120.5 38z" />
    <glyph glyph-name="uniE61F" unicode="&#xe61f;" 
d="M512 816q-61 0 -119 -14t-107 -38.5t-90.5 -60t-70 -77.5t-45 -92t-16.5 -102q0 -137 100.5 -242.5t256.5 -133.5l65 -90q4 -7 11 -10.5t15 -3.5q16 0 26 14l65 91q102 18 183.5 72t127.5 133.5t46 169.5q0 104 -60 192.5t-163.5 140t-224.5 51.5zM288.5 368
q-26.5 0 -45.5 19t-19 45q0 13 5 25t14 20.5t20.5 13.5t24.5 5q18 0 32.5 -8.5t23 -23.5t8.5 -32q0 -26 -18.5 -45t-45 -19zM512 368q-26 0 -45 19t-19 45t19 45t45 19q17 0 32 -8.5t23.5 -23.5t8.5 -32t-8.5 -32t-23.5 -23.5t-32 -8.5zM736 368q-17 0 -32 8.5t-23.5 23.5
t-8.5 32q0 26 18.5 45t45.5 19q17 0 32 -8.5t23.5 -23.5t8.5 -32q0 -26 -19 -45t-45 -19z" />
    <glyph glyph-name="uniE620" unicode="&#xe620;" 
d="M512 737q-73 0 -141.5 -22.5t-123.5 -64t-96 -96.5t-64 -123.5t-23 -141.5q0 -91 35.5 -173.5t95.5 -142.5t143 -95.5t174 -35.5t174 35.5t142.5 95.5t95 142.5t35.5 173.5t-35.5 174t-95 143t-142.5 95.5t-174 35.5zM512 -46q-91 0 -168.5 45t-122.5 122t-45 168
t45 168.5t122.5 122.5t168.5 45t168.5 -45t122 -122.5t44.5 -168.5t-44.5 -168t-122 -122t-168.5 -45zM456 463q0 20 16.5 35t37.5 15t38.5 -15t17.5 -35v-208q0 -6 -1.5 -10t-5 -6.5t-6.5 -3.5t-8.5 -1.5t-9.5 -0.5h-11h-12h-12h-11q-4 0 -10 0.5t-9.5 1.5t-7 3.5t-5 6.5
t-1.5 10v208zM456 122q0 9 3 17.5t8 15.5t12 12.5t15.5 8t17.5 2.5q23 0 39.5 -16.5t16.5 -39.5t-16.5 -39.5t-39.5 -16.5q-35 0 -50 31q-5 13 -6 25z" />
    <glyph glyph-name="uniE621" unicode="&#xe621;" 
d="M512 -147q-46 0 -89.5 9t-84.5 26q-81 34 -143 96t-96 142q-35 84 -35 175t35 174q17 40 41 75.5t55 66.5q62 62 143 96q41 17 84.5 26t89.5 9q91 0 174 -35q40 -17 75.5 -41t66.5 -55q62 -62 96 -142q35 -83 35 -174t-35 -175q-34 -80 -96 -142t-142 -96
q-83 -35 -174 -35zM512 707q-83 0 -159 -32q-72 -31 -128.5 -87t-87.5 -129q-16 -38 -24 -77.5t-8 -80.5q0 -83 32 -159q31 -73 87.5 -129t128.5 -87q76 -32 159 -32q41 0 80.5 8t77.5 24q73 31 129 87t87 129q32 76 32 158.5t-32 158.5q-31 73 -87 129t-129 87
q-38 16 -77.5 24t-80.5 8zM536 64v391l189 -188l28 28l-241 241l-241 -241l28 -28l189 189v-392h48z" />
    <glyph glyph-name="uniE622" unicode="&#xe622;" horiz-adv-x="1025" 
d="M408 51q0 69 27 134q26 62 73.5 109.5t109.5 73.5q12 5 23.5 9t23.5 7q1 3 2 7t1.5 6.5t1.5 6.5q5 2 9 4t8 6q8 6 13 18q2 2 3 4.5t2 5.5t1.5 6t1 6.5t1.5 7.5q0 3 0.5 5.5t0.5 4.5v6q0 2 -0.5 4t-0.5 4q-3 10 -6 16q-4 7 -10 11q0 12 -0.5 24t-1.5 24t-3 24
q-4 30 -15 65q-3 9 -6.5 17t-8 16t-9.5 15.5t-10 15.5q-11 13 -26 24q-17 13 -37 22q-21 10 -44.5 16.5t-50.5 6.5q-10 0 -20.5 -1t-21.5 -3q-23 -4 -44 -12q-22 -10 -43 -25q-10 -8 -19.5 -18t-18.5 -22q-18 -27 -27 -59q-10 -33 -13 -61q-5 -34 -4 -68q-7 -9 -11 -19
q-3 -9 -5 -21q-1 -13 3 -28q5 -15 11 -23q7 -8 12 -13l4 -2l4 -2l4 -2q2 -4 3.5 -9t3 -9.5t2.5 -9.5q6 -13 10 -23q6 -11 13 -17q8 -7 14.5 -13t12.5 -11q12 -12 14 -34q1 -15 1 -25q0 -11 -4 -22t-14 -22q-10 -10 -29 -22q-12 -8 -25.5 -14t-29.5 -10t-130 -43
q-15 -5 -27.5 -11.5t-23.5 -15.5q-22 -17 -27 -50q-7 -46 -4 -69q5 -37 15 -44q2 -2 6 -3.5t9.5 -3.5t13.5 -4t17 -4q22 -5 60.5 -11.5t120.5 -15t159 -9.5q-10 18 -18 37q-27 66 -27 135zM408 51q0 69 27 134q26 62 73.5 109.5t109.5 73.5q12 5 23.5 9t23.5 7q4 14 5 21
q9 2 17 9t13 18q3 5 5.5 13t3.5 17q1 7 1 13t-1 11q-3 11 -6 17q-4 7 -10 10v18q0 9 -0.5 18t-1.5 18t-3 18q-4 32 -15 66t-34 63q-10 13 -26 25q-17 12 -37 22q-21 10 -44.5 16t-50.5 6h-8q-4 0 -8.5 -0.5t-8.5 -1t-8.5 -1t-8.5 -0.5q-23 -4 -44 -13q-11 -5 -21.5 -11
t-21 -14t-20 -18t-18.5 -22q-9 -13 -16 -27.5t-11 -30.5q-10 -33 -13 -61q-5 -35 -4 -69q-7 -9 -11 -19q-3 -8 -5 -21q-1 -12 3 -27q5 -15 11 -24q7 -8 12 -12q3 -2 6 -3.5t6 -2.5q3 -7 5 -14l4 -14q5 -12 10 -23q6 -12 13 -18l4 -2l3 -4q2 -2 4 -3.5t3 -2.5l4 -4
q1 -1 3 -2.5t3 -3.5l3 -2q12 -12 14 -33q1 -15 1 -25q0 -12 -4 -23t-14 -21.5t-29 -22.5q-5 -3 -10 -5.5l-11 -5.5l-10 -4q-6 -3 -12 -5t-12 -3q-16 -4 -130 -43q-10 -4 -19 -8t-17 -9t-15 -10q-22 -17 -27 -51q-7 -46 -4 -69q5 -37 15 -44q2 -2 6 -3.5t9.5 -3.5t13.5 -4
t17 -4q21 -4 60.5 -11t121 -15t159.5 -10q-9 16 -19 38q-27 64 -27 134zM1022 82q-2 9 -9.5 17t-16.5 10l-9 2q-10 4 -19.5 9.5t-18 13.5t-14 18t-8.5 21.5t-3.5 22.5t2.5 22l3 8q3 9 -0.5 19.5t-10.5 16.5q-8 7 -32 21l-34 17q-9 3 -19.5 0.5t-16.5 -9.5l-6 -6
q-26 -25 -62 -25t-61 25l-6 6q-3 4 -7.5 6t-9.5 3.5t-10 1.5t-9 -2q-11 -4 -35 -17l-32 -21q-3 -3 -5 -6t-3.5 -7t-2.5 -8t-0.5 -8t1.5 -7l2 -9q4 -15 2 -32.5t-11 -32.5q-18 -31 -52 -41l-9 -2q-3 -1 -6 -2.5t-5.5 -3.5t-5 -4.5t-4 -5t-3 -5.5t-2.5 -6q-2 -11 -2 -38l2 -39
q2 -9 9.5 -16.5t16.5 -10.5l9 -2q34 -10 52 -41t9 -65l-2 -9q-1 -1 -1 -3v-4v-4q0 -2 1 -4v-4l2 -4q0 -2 1 -4l2 -2q1 -2 3 -4l2 -2q9 -8 33 -21l34 -18q6 -2 12.5 -1.5t13 3.5t10.5 7l6 7q6 5 13 9.5t14.5 8t16.5 5t17 1.5q36 0 62 -24l6 -7q2 -2 5.5 -4.5t7.5 -3.5t8 -1.5
t8 -0.5t7 1q1 1 3.5 2t11.5 5.5t19 10.5l33 21q7 5 10 16t0 19l-3 9q-4 16 -1.5 33t11.5 32q18 31 52 41l9 2q9 3 16.5 10.5t8.5 16.5q2 11 2 39v14q0 7 -0.5 11.5t-1 7.5t-0.5 4v1zM748 -66q-45 0 -77.5 32t-32.5 77.5t32.5 78t78 32.5t77.5 -32.5t32 -78t-32 -77.5
t-78 -32z" />
    <glyph glyph-name="uniE623" unicode="&#xe623;" 
d="M870 426q-9 13 -24 15t-27 -7t-14 -24t7 -27q27 -37 27 -83q0 -22 -7 -43.5t-20 -39.5q-2 -2 -3.5 -5t-2.5 -6t-1.5 -6t0 -6.5t1 -6.5t2 -6t3 -5.5t3.5 -5.5l5 -4q10 -7 22 -7q4 0 8 1t8 2.5t7.5 4.5t5.5 7q43 56 43 126t-43 126zM954 510q-9 12 -24 14t-27 -7t-14 -24
t7 -27q18 -24 30 -51t18.5 -56t6.5 -59q0 -92 -55 -166q-6 -8 -7.5 -17.5t2.5 -18.5t12 -15q10 -8 22 -8q4 0 8 1t8 3t7 5l6 6q34 46 52 99.5t18 110.5q-1 117 -70 210zM695 739l-466 -220h-156q-15 0 -28.5 -5.5t-23 -15.5t-15.5 -23.5t-6 -28.5v-73v-146v-73
q0 -31 21.5 -52t51.5 -21h156l466 -220q12 0 23 4t20 10.5t16 15.5t10.5 20t3.5 23v732q0 12 -3.5 23t-10.5 20t-16 15.5t-20 10.5t-23 4zM73 227v146v73h110v-292h-110v73zM695 -58l-435 205l-4 1v304l4 1l435 205v-716z" />
    <glyph glyph-name="uniE624" unicode="&#xe624;" 
d="M788 652q48 -35 86 -78.5t64.5 -94t40.5 -107.5q3 -11 5.5 -22.5t4 -22.5t2.5 -22.5t1.5 -23t0.5 -23.5q0 -100 -38 -187.5t-103 -153t-153 -103.5t-188 -38q-99 0 -186.5 38t-153 103.5t-103 153t-37.5 187.5q0 57 13.5 112t38 104.5t61 92.5t81.5 77q24 17 51 13
q14 -2 25 -9t20 -18q17 -23 13 -51q-1 -5 -2.5 -10t-4 -10t-5.5 -9t-6.5 -8t-8.5 -8q-68 -49 -104 -121t-36 -155q0 -71 27 -134t74 -110t109.5 -74t133.5 -27t134 27t110 74t74.5 110t27.5 134q0 84 -39 158.5t-109 123.5q-11 8 -18.5 19t-9.5 25q-1 7 -1 13.5t1.5 13t4 13
t6.5 11.5q16 23 44 28t52 -11v0zM511 255q-28 0 -47.5 19.5t-19.5 47.5v409q0 28 19.5 48.5t47.5 20.5q29 0 49 -20.5t20 -48.5v-409q0 -28 -19.5 -47.5t-49.5 -19.5v0z" />
    <glyph glyph-name="uniE625" unicode="&#xe625;" 
d="M950 403l-301 44l-134 272l-135 -272l-300 -44l217 -212l-51 -299l269 141l269 -141l-52 299zM950 403z" />
    <glyph glyph-name="uniE626" unicode="&#xe626;" 
d="M512 748q-141 0 -255.5 -80t-163.5 -208h70q28 62 77 112q55 54 125 83t147 29t147 -29t125 -83q36 -37 61 -80.5t38 -92t13 -99.5q0 -77 -29 -147t-83.5 -124.5t-124.5 -83.5t-147 -29t-147 29t-125 83q-49 50 -77 112h-70q24 -63 66 -116t96 -91t120.5 -59.5
t136.5 -21.5q91 0 174 35.5t143 95.5t95.5 143t35.5 174t-35.5 174t-95.5 143t-143 95.5t-174 35.5zM414 164l45 -45l181 181l-181 181l-45 -45l103 -104h-453v-64h453z" />
    <glyph glyph-name="uniE627" unicode="&#xe627;" 
d="M512 698q-108 0 -200 -53t-145 -145t-53 -200t53 -200t145 -145t200 -53q81 0 155 31.5t127 84.5t84.5 127t31.5 155t-31.5 155t-84.5 127t-127 84.5t-155 31.5zM512 1q-124 0 -211.5 87.5t-87.5 211.5t87.5 211.5t211.5 87.5t211.5 -87.5t87.5 -211.5q0 -125 -89 -213
q-88 -85 -210 -86zM313 300q0 14 6.5 25t18 18t25.5 7q20 0 34.5 -14.5t14.5 -35.5t-14.5 -35.5t-34.5 -14.5q-10 0 -19.5 4t-16 10.5t-10.5 16t-4 19.5zM462 300q0 14 7 25t18 18t25 7t25 -7t18 -18t7 -25q0 -21 -14.5 -35.5t-35.5 -14.5q-14 0 -25 7t-18 18t-7 25z
M612 300q0 21 14.5 35.5t34.5 14.5q10 0 19.5 -4t16 -10.5t10.5 -16t4 -19.5q0 -21 -14.5 -35.5t-35 -14.5t-35 14.5t-14.5 35.5z" />
    <glyph glyph-name="uniE628" unicode="&#xe628;" 
d="M558 300v-289q0 -18 -4 -28q-11 -34 -43 -19q-25 12 -50 33q-23 18 -78 64t-85 70q-19 14 -40 15q-24 1 -50 1h-59h-50q-23 0 -29 6t-6 29q-1 135 0 237q0 16 3 23.5t10 10t24 2.5q146 1 151 1q11 0 23 4.5t21 11.5q15 12 179 147q15 13 21 14q2 1 7 2.5t8 2.5t7.5 2
t8 1.5t7 0t5.5 -1.5q8 -4 13 -16.5t5 -23.5q1 -33 1 -214v-86zM961 305q-4 -76 -28 -144.5t-68 -130.5q-5 -7 -13.5 -11t-17.5 -5q-6 -1 -14 3t-11 9q-2 4 -0.5 11t5.5 13q57 88 73 173q30 163 -59 311q-1 3 -4.5 8.5t-5.5 8.5q-1 2 -6 9t-6 10.5t0.5 9t8.5 10.5
q11 9 26.5 6t23.5 -17q3 -6 14 -25.5t16 -29t13 -25.5t14 -29.5t10 -27.5q7 -19 12 -41.5t9.5 -52t7.5 -43.5zM821 304q2 -76 -37 -159q-11 -23 -35 -21q-37 3 -22 35q68 141 2 286q-3 7 -4 10.5t-1.5 9t2.5 9.5t10 7q13 6 25.5 3t19.5 -17q41 -80 40 -163zM693 302
q-1 -5 -2 -11.5t-2 -11.5t-2 -11l-2 -10l-2 -12l-2 -10l-2 -10q-3 -10 -9.5 -16.5t-15 -8.5t-18.5 1q-10 2 -14 8.5t-4 13t3 16.5q19 64 0 128q-9 30 14 37q15 5 27.5 -1t15.5 -20q2 -8 4 -16.5t3.5 -17t2.5 -16t2.5 -16.5t2.5 -16z" />
    <glyph glyph-name="uniE629" unicode="&#xe629;" 
d="M860 635h-94v-154h-510v154h-92q-14 0 -24.5 -10t-10.5 -25v-714q0 -15 10.5 -25t24.5 -10h696q14 0 24 10t10 25v714q0 15 -10 25t-24 10zM782 337l-301 -369q1 -4 -3 -4.5t-7 2.5l-220 180q-2 2 -3 4.5t-0.5 5.5t2.5 5l36 45q7 8 16 1l166 -137l258 315q6 11 15 4
l43 -35q8 -6 -2 -17zM643 680v28q0 14 -7 26t-19 19t-26 7h-158q-14 0 -26 -7t-19 -19t-7 -26v-28h-61v-140h383v140h-60zM512 591q-24 0 -40.5 17t-16.5 40.5t16.5 40.5t40.5 17q16 0 29 -7.5t20.5 -21t7.5 -28.5q0 -27 -16 -42.5t-41 -15.5z" />
    <glyph glyph-name="uniE62A" unicode="&#xe62a;" 
d="M795 681h-548q-46 0 -78 -32t-32 -78v-585q0 -45 32 -77t78 -32h548q46 0 78 32t32 77v585q0 46 -32 78t-78 32zM211 534q0 8 3 14.5t8 11.5t11.5 8t14.5 3h181q15 0 26 -11t11 -26v-255q0 -10 -5 -18.5t-13.5 -13t-18.5 -4.5h-181q-16 0 -26.5 10.5t-10.5 25.5v255z
M828 5q0 -7 -5 -12.5t-13 -5.5h-578q-7 0 -12.5 5.5t-5.5 12.5v36q0 8 5.5 13t12.5 5h578q8 0 13 -5t5 -13v-36zM828 132q0 -7 -5 -12.5t-13 -5.5h-578q-3 0 -5.5 1t-5 2.5t-4 4t-2.5 5t-1 5.5v38q0 7 5.5 12.5t12.5 5.5h578q8 0 13 -5.5t5 -12.5v-38zM828 261q0 -8 -5 -13
t-13 -5h-271q-7 0 -12.5 5t-5.5 13v36q0 5 2.5 9t6.5 6.5t9 2.5h271q4 0 7.5 -1.5t5.5 -4t3.5 -5.5t1.5 -7v-36zM828 388q0 -8 -5 -13t-13 -5h-271q-5 0 -9 2.5t-6.5 6.5t-2.5 9v36q0 5 2.5 9t6.5 6.5t9 2.5h271q4 0 7.5 -1.5t5.5 -3.5t3.5 -5.5t1.5 -7.5v-36zM828 517
q0 -8 -5 -13.5t-13 -5.5h-271q-7 0 -12.5 5.5t-5.5 13.5v36q0 5 2.5 9t6.5 6.5t9 2.5h271q8 0 13 -5.5t5 -12.5v-36z" />
    <glyph glyph-name="uniE62B" unicode="&#xe62b;" 
d="M675 79h139v-111h-139v111zM639 539q5 -5 7 -11.5t0 -13t-7 -10.5l-139 -126q-8 -7 -20 -7q-5 0 -10.5 2t-9.5 5l-83 76q-5 4 -7 10.5t0 13t7 11.5t12.5 6.5t14.5 0t12 -6.5l64 -57l119 107q9 7 20.5 7t19.5 -7zM202 79h417v-111h-417v111zM119 396.5q0 -41.5 32.5 -71
t78.5 -29.5h584q34 0 58.5 22t24.5 53q0 12 -4.5 23.5t-12 21t-17.5 16.5t-23 10.5t-26 3.5q-12 0 -20 7.5t-8 17.5q0 61 -33.5 113t-91.5 82t-125 30q-93 0 -164 -50.5t-87 -128.5q-2 -9 -9.5 -15t-17.5 -6h-28q-46 0 -78.5 -29t-32.5 -70.5zM840 494q49 -9 80.5 -43.5
t31.5 -79.5q0 -52 -40.5 -88.5t-97.5 -36.5h-584q-69 0 -118 44t-49 106t49 106t118 44h6q26 88 109.5 144t190.5 56q78 0 146 -33.5t110 -91t48 -127.5zM119 -32q0 -9 2.5 -17.5t7 -15t11 -12t14 -8t15.5 -2.5h678q14 0 27 7.5t20.5 20.5t7.5 27v111q0 18 -31 37t-57 19
h-612q-25 0 -54 -18.5t-29 -37.5v-111zM958 79v-111q0 -45 -33 -78t-78 -33h-678q-44 0 -75 32.5t-31 78.5v111q0 46 46.5 79t92.5 33h612q19 0 43.5 -8t47 -22t38 -35.5t15.5 -46.5z" />
    <glyph glyph-name="uniE62C" unicode="&#xe62c;" 
d="M735 314q14 0 25 -6t16.5 -15.5t8.5 -21t0 -22.5t-9 -20.5t-17 -15.5t-25 -6q-33 0 -46 26.5t0.5 53.5t46.5 27zM735 146q32 0 45.5 -26.5t-0.5 -53.5t-46 -27q-20 0 -33.5 11t-16.5 27t0.5 31.5t17 26.5t33.5 11zM706 649v-78q0 -24 -12 -41.5t-29.5 -17.5t-30 17.5
t-12.5 41.5v78q0 24 12.5 41.5t29.5 17.5q12 0 21.5 -8t15 -21.5t5.5 -29.5zM427 624h167v-56h-167v56zM511 314q39 0 49 -37q10 -35 -15 -57q-14 -13 -35 -13q-32 0 -45.5 26.5t0 53.5t46.5 27zM511 146q33 0 46 -26.5t-0.5 -53.5t-46.5 -27q-14 0 -25 6t-17 15.5t-8.5 21
t0.5 23t8.5 21t17 15t25.5 5.5zM399 649v-78q0 -24 -12.5 -41.5t-30 -17.5t-29.5 17.5t-12 41.5v78q0 24 12 41.5t29.5 17.5t30 -17.5t12.5 -41.5zM287 314q39 0 49 -37q10 -35 -14 -57q-15 -13 -35 -13q-33 0 -46.5 26.5t0.5 53.5t46 27zM287 146q33 0 46 -26.5t-0.5 -53.5
t-45.5 -27q-12 0 -21 3.5t-15 10t-10 14.5t-5 17t0 18t5 17t10 14t15.5 9.5t20.5 3.5zM119 87q0 -55 49.5 -94.5t118.5 -39.5h447q46 0 84.5 18t61 49t22.5 67v313h-783v-313zM958 434v-347q0 -78 -65.5 -134t-158.5 -56h-447q-93 0 -158.5 56t-65.5 134v347q0 78 65.5 134
t158.5 56v-56q-62 0 -108.5 -32t-56.5 -80h777q-6 32 -29.5 57.5t-59 40t-76.5 14.5v56q93 0 158.5 -56t65.5 -134z" />
    <glyph glyph-name="uniE62D" unicode="&#xe62d;" 
d="M781 603v-332l-77 83l-77 -83v333q-17 -7 -32.5 -17t-26.5 -20.5t-21 -21.5t-16 -21l-11 -18q-4 -7 -6 -12l-1 -4q-2 5 -6 13.5t-19.5 31t-35 39.5t-54.5 30.5t-77 13.5q-115 0 -175 -96l-16 -32v-458q2 5 6.5 14t21.5 31t37 39.5t54 31t72 13.5q108 0 174 -99
q12 -17 18 -30q2 5 6 14t20 31t36 39.5t54.5 31t74 13.5t74 -13t55 -31.5t35.5 -38.5t21 -32t6 -14v455q-1 2 -2 5t-6 12t-11 18t-15.5 21t-20.5 22.5t-26.5 20.5t-32.5 17zM627 271v0v0zM781 271zM781 271zM627 271z" />
    <glyph glyph-name="uniE62E" unicode="&#xe62e;" 
d="M752 592h-479l-188 -205v-375h854v375zM288 558h449l156 -171h-262q0 -31 -16 -58t-43.5 -42.5t-59.5 -15.5t-59.5 15.5t-43.5 42.5t-16 58h-261z" />
    <glyph glyph-name="uniE62F" unicode="&#xe62f;" 
d="M512 812q-139 0 -257 -68.5t-186.5 -186.5t-68.5 -257t68.5 -257t186.5 -186.5t257 -68.5t257 68.5t186.5 186.5t68.5 257t-68.5 257t-186.5 186.5t-257 68.5zM143 349q-1 3 -2 7t-2.5 16t-0.5 22.5t6 24t14.5 22.5t27.5 15.5t43 6.5h11q-1 0 -3 7.5t-2.5 20t2.5 26.5
t14 30t30 27q2 2 6 4t16.5 7.5t24.5 7.5t30.5 4.5t35.5 -2.5q1 -1 3.5 -1.5t10 -3.5t14 -6.5t14.5 -10t13 -13.5q21 -32 33 -90q26 -113 26 -165q0 2 2.5 9t2.5 10q-3 29 -3.5 60t1 70.5t1.5 59.5q3 41 13 63q17 32 58 45q9 2 21 2.5t28.5 -2t30 -15.5t18.5 -34q2 -5 2 -31
q15 7 17 8q0 1 1 1q58 23 97 -35q0 -1 1.5 -3t3.5 -5.5t4 -8.5t3.5 -11.5t3 -13.5t2 -15.5t-0.5 -17t-3.5 -18t-6.5 -18.5q-1 -3 -4 -8t-13.5 -16t-21.5 -19q-5 -3 -15.5 -7.5t-31 -10t-43.5 -7.5q-42 -5 -71.5 -10t-46 -9.5t-50.5 -14.5q0 1 -4 1.5t-9.5 1t-8.5 1.5
q-66 7 -154 -13q-1 0 -6 -1t-13.5 -2t-17.5 -2q-58 -8 -90 -1q-15 4 -34 21t-28 40zM547 28q-1 -14 -5 -28t-9 -23t-8 -10q-18 -27 -48 -39.5t-55 -11.5t-37 10q-13 7 -23.5 17t-16.5 19.5t-10 19t-5.5 15t-1.5 7.5q-3 10 -3 12h-3q-4 -1 -10 -1h-10h-7q-44 3 -67 28.5
t-21.5 48.5t-0.5 34q0 9 1.5 17.5t3.5 14.5t6 13.5t6 11t6.5 10t5.5 7.5q29 32 59 45q37 19 82.5 31t99.5 15h9q7 0 13.5 0.5t8.5 0.5q0 -19 2.5 -39.5t6 -34.5t11.5 -43.5t12 -45.5q13 -75 8 -101zM867 180q-3 -9 -7 -16.5t-8.5 -13t-10 -9.5t-10.5 -6.5t-10.5 -4.5
t-10.5 -2.5t-10 -0.5h-7h-5h-4l-2 1l-4 2q-2 1 -4.5 2t-4.5 2t-3 2l-2 1h-2q1 0 3.5 -10t5 -21.5t2.5 -13.5q2 -17 -5.5 -32.5t-19 -24.5t-25 -15t-24 -8.5t-16.5 -2.5q-17 -1 -31.5 3.5t-21 9t-16.5 12.5q-8 11 -29 57q-35 90 -59 181q0 2 -0.5 7t-1.5 9t-2 6q23 1 72.5 8
t88.5 9q45 4 95 -6q14 -4 25.5 -8t15.5 -7l5 -3q17 -10 28.5 -26.5t14.5 -32.5t3 -29t-3 -19z" />
    <glyph glyph-name="uniE630" unicode="&#xe630;" 
d="M318 299l-191 195q-5 5 -8 10.5t-4 12t0 13t4 12t8 10.5q7 8 17.5 10.5t21 0t18.5 -10.5l305 -309q10 -9 23 -9t22 9l306 309q6 6 13.5 9t15.5 3t15.5 -3t13.5 -9q8 -8 10.5 -18.5t0 -21t-10.5 -18.5l-192 -195l192 -193q12 -12 12 -29t-12 -29t-29 -12t-29 12l-191 193
l-71 -73q-28 -27 -66 -27q-19 0 -36 7.5t-30 20.5l-71 72l-191 -193q-8 -8 -18.5 -11t-21 0t-17.5 11q-12 12 -12 29t12 29zM10 15q0 -35 24.5 -60t59.5 -25h837q34 0 58.5 25t24.5 60v570q0 14 -4 27t-12 23.5t-18 18t-23 12t-26 4.5h-837q-49 0 -73 -42q-11 -21 -11 -43
v-570z" />
    <glyph glyph-name="uniE631" unicode="&#xe631;" 
d="M483 278l-58 -52l-2 2l25 41q10 19 17 19q3 0 9 -4zM485 19q14 -8 18.5 -12.5t4.5 -11.5q0 -10 -18 -19l-31 -16q-10 -8 -13 -23h64q3 0 7 0.5t7 1.5l6 2l98 54q19 11 19 21q0 7 -3 11t-10 10l-124 90q-9 7 -9 15q0 3 2 6.5t7 6.5l84 56q53 36 53 82q0 23 -15 50.5
t-60 70.5q-27 25 -37 43l94 14q31 5 50 12.5t36 22.5l22 18l30 -27q4 -5 8 -6.5t8 -1.5q2 0 3.5 0.5t4 1.5t5 3t5.5 4l46 43q15 14 15 25q0 5 -15 24t-34 39t-37 36t-24 16q-13 0 -46 -33.5t-33 -47.5q0 -9 6 -16l20 -21l-11 -9q-15 -14 -49.5 -20t-116.5 -6q-29 0 -58 0.5
t-50 1t-31 0.5q-9 0 -14.5 1t-8.5 3t-4.5 4.5t-1.5 6.5t1.5 8.5t2.5 9t1 7.5q0 26 -12 46.5t-32.5 32t-45.5 11.5t-45.5 -11.5t-32.5 -31.5t-12 -45q0 -18 7 -34.5t19 -28t29 -18.5t35 -7h6q-6 -10 -6 -15q0 -7 6 -13l106 -119l-61 -87q-13 -18 -13 -35q0 -20 19.5 -31
t39.5 -6h6l-5 -6q-4 -6 -7 -13t-5 -14t-2 -12q0 -29 23 -44z" />
    <glyph glyph-name="uniE632" unicode="&#xe632;" 
d="M845 379l-5 49q-17 -4 -30.5 -6t-25.5 -2q-19 0 -34.5 5t-25.5 13t-19.5 19t-17.5 22t-19 21.5t-23.5 18.5t-32 13t-43.5 5q-42 0 -90.5 -12.5t-93 -35.5t-73.5 -61.5t-29 -85.5q-19 -12 -28 -47l-76 17l-37 -161l244 -63l47 164l-73 18q1 5 1.5 9.5t1.5 10t1 10.5
q0 36 -33 47q4 21 19 38.5t36 28.5t44.5 17t44.5 6t21 -48q0 -98 -45 -271l41 1q2 -15 2 -26q0 -52 -23.5 -101.5t-63.5 -82.5l50 -40q107 114 107 251l59 4q18 -32 27.5 -77t10.5 -76t1 -90l55 -2q0 20 -1 71t-2 75t-6 55.5t-15 50.5l53 18l-119 168l6 131
q28 -41 57.5 -63.5t68.5 -22.5q21 0 44 4.5t42 12.5zM337 294q0 -8 -2 -18l-55 12q1 3 1.5 5.5t1.5 5t2 4.5t1.5 4t1.5 3l2 -4l41 8q3 -4 4.5 -9t1.5 -11zM653 629q0 18 -9 33.5t-24 24.5t-33 9q-27 0 -46.5 -19.5t-19.5 -47.5q0 -17 9 -32.5t24 -24.5t33 -9q27 0 46.5 19.5
t19.5 46.5z" />
    <glyph glyph-name="uniE633" unicode="&#xe633;" 
d="M870 -152h-728q-23 0 -43 11.5t-31.5 31.5t-11.5 43v727q0 13 9 22t21.5 9t21.5 -9t9 -22v-727q0 -11 7.5 -18.5t17.5 -7.5h728q12 0 21 -8.5t9 -21.5q0 -8 -4 -15t-11 -11t-15 -4zM478 240zM797 210q-4 0 -7 0.5t-6 2t-6 3.5t-5 5t-3.5 5.5t-2 6t-0.5 7.5v150h-151
q-8 0 -15 4t-11 11t-4 15q0 13 9 22t21 9h211v-211q0 -6 -2.5 -12t-6.5 -10t-9.5 -6t-11.5 -2zM538 137l-180 181l-160 -160q-9 -9 -21 -9t-21 9q-3 3 -5 6.5t-3 7.5t-1 7.5t1 7.5t3 7.5t5 6.5l202 202l180 -181l220 220q9 9 21.5 9t21.5 -9q4 -5 6 -10.5t2 -11t-2 -11
t-6 -10.5z" />
    <glyph glyph-name="uniE634" unicode="&#xe634;" 
d="M981 -89h-896v829q0 5 -1 10t-3 9t-5 8t-6.5 7t-8 5t-9 3t-9.5 1q-18 0 -30.5 -12.5t-12.5 -30.5v-873q0 -12 5.5 -22t15.5 -15.5t22 -5.5h938q7 0 13.5 2t12 6t9.5 9.5t6 12t2 13.5t-2 14t-6 12t-9.5 9t-12 6.5t-13.5 2.5zM341 -2q36 0 61 25.5t25 61.5v88
q0 36 -25 61.5t-60.5 25.5t-60.5 -25.5t-25 -61.5v-88q0 -23 11.5 -43.5t31 -32t42.5 -11.5zM597 -2q18 0 33.5 7t27 18.5t18.5 28t7 33.5v437q0 23 -11.5 43t-31.5 32t-43 12q-35 0 -60 -25.5t-25 -61.5v-437q0 -36 25 -61.5t60 -25.5zM853 -2q23 0 43 11.5t31.5 32
t11.5 43.5v262q0 36 -25 61.5t-60.5 25.5t-60.5 -25.5t-25 -61.5v-262q0 -36 25 -61.5t60 -25.5z" />
    <glyph glyph-name="uniE635" unicode="&#xe635;" 
d="M520 -212q-105 0 -194 49.5t-141 135t-52 185.5q0 103 55 191l305 448q3 4 6 6.5t6 4.5t7 3t8 1q17 0 27 -15l305 -447q56 -89 56 -192q0 -145 -104 -252q-103 -106 -253 -117q-16 -1 -31 -1zM650 103q-11 0 -21 -3t-18.5 -8.5t-15 -13t-11.5 -16.5l-95 16q2 9 2 18
q0 40 -27 69l88 88q12 -5 25 -5q20 0 36.5 9.5t26.5 26.5t10 36.5t-10 36t-26.5 26.5t-36.5 10q-6 0 -12.5 -1.5t-12.5 -3.5t-11.5 -5t-10 -7t-8.5 -9t-7 -10t-5.5 -11t-3.5 -12.5t-1 -13.5q0 -30 22 -51l-86 -86l-8 4q-4 2 -8 3.5t-8.5 3t-9 2.5t-9.5 1h-9
q-42 0 -71.5 -29.5t-29.5 -71.5t29.5 -71.5t71.5 -29.5q29 0 53.5 15t37.5 41l97 -17v-3q0 -30 21.5 -51t51.5 -21q19 0 36 9.5t26.5 26t9.5 36.5t-9.5 36.5t-26.5 26t-36 9.5z" />
    <glyph glyph-name="uniE636" unicode="&#xe636;" 
d="M896 -180h-640q-27 0 -45.5 18.5t-18.5 45.5v32q27 0 45.5 18.5t18.5 45.5v64q0 27 -18.5 45.5t-45.5 18.5v384q27 0 45.5 18.5t18.5 45.5v64q0 27 -18.5 45.5t-45.5 18.5v32q0 27 18.5 45.5t45.5 18.5h640q27 0 45.5 -18.5t18.5 -45.5v-832q0 -27 -18.5 -45.5
t-45.5 -18.5zM768 140q-7 43 -34 78.5t-66 57.5q36 37 36 88v64q0 53 -37.5 90.5t-90.5 37.5t-90.5 -37.5t-37.5 -90.5v-64q0 -51 36 -88q-26 -14 -46.5 -34.5t-34.5 -46.5t-19 -55q0 -40 28 -68t68 -28h192q40 0 68 28t28 68zM160 556h-64q-13 0 -22.5 9.5t-9.5 22.5
t9.5 22.5t22.5 9.5h64q13 0 22.5 -9.5t9.5 -22.5t-9.5 -22.5t-22.5 -9.5zM64 716q0 27 18.5 45.5t45.5 18.5v-96h-64v32zM128 108h-64v384h64v-384zM96 44h64q13 0 22.5 -9.5t9.5 -22.5t-9.5 -22.5t-22.5 -9.5h-64q-13 0 -22.5 9.5t-9.5 22.5t9.5 22.5t22.5 9.5zM128 -180
q-27 0 -45.5 18.5t-18.5 45.5v32h64v-96z" />
    <glyph glyph-name="uniE637" unicode="&#xe637;" 
d="M915 113q-38 4 -90 7q-5 -248 -83 -286v167q9 2 15.5 9t6.5 16v25q0 7 -3.5 13t-9 9t-12.5 3h-56q-6 0 -12 -3t-9.5 -9t-3.5 -13v-25q0 -9 6.5 -16t15.5 -9v-167q-78 38 -83 286l-90 -7q-43 0 -73.5 -30t-30.5 -73v-132q0 -40 93 -61.5t219 -21.5q124 0 214 21.5t90 61.5
v132q0 28 -14 52t-37.5 37.5t-52.5 13.5zM711 115q22 0 47.5 10.5t50 31t44.5 47.5t32.5 62.5t12.5 72.5q0 92 -55 158t-132 66q-38 0 -72.5 -18t-59.5 -48t-40 -71.5t-15 -86.5q0 -98 76 -171q57 -53 111 -53zM571 389q8 12 16 23q7 9 9 12t8.5 8t11 3.5t12 -6.5t16.5 -17
q13 -18 50.5 -32.5t79.5 -21.5t82 -8v-11q0 -47 -24.5 -90.5t-58 -68t-62.5 -24.5q-46 0 -95.5 56.5t-49.5 126.5q0 8 0.5 16.5t1.5 16.5t3 17zM279 235l-65 48l134 134v217h85v-246zM693 652q-66 88 -170.5 128t-215.5 16q-102 -21 -177 -89.5t-106.5 -165.5t-10.5 -199
q26 -117 111.5 -197.5t200.5 -99.5l59 85q-101 1 -181 65.5t-102 165.5q-6 29 -6.5 59t5 57.5t16 54t26 50t35 44t42.5 36.5t50.5 28t56.5 19q53 11 103.5 3.5t95 -31.5t78.5 -61zM673 643z" />
    <glyph glyph-name="uniE638" unicode="&#xe638;" 
d="M618 664q-73 0 -135 -36t-98 -98t-36 -135q0 -37 10 -72.5t29 -66.5l-78 -64l-101 120l-67 -55l102 -121l-107 -89l55 -67l108 90l102 -120l66 56l-102 120l77 64q75 -64 175 -64q112 0 190.5 78.5t78.5 190.5q0 27 -5.5 54t-15.5 50.5t-25 45.5t-33 40t-40 32.5
t-45.5 25t-50.5 16t-54 5.5zM618 212q-76 0 -129 54t-53 129t53 128.5t129 53.5q75 0 129 -53.5t54 -128.5q0 -37 -14.5 -71t-39 -58.5t-58.5 -39t-71 -14.5z" />
    <glyph glyph-name="uniE639" unicode="&#xe639;" 
d="M825 315l50 287l-291 3l91 -109l-83 -66q-73 58 -167 58q-111 0 -189.5 -78.5t-78.5 -190.5q0 -111 78.5 -189t189.5 -78t189.5 78.5t78.5 188.5q0 40 -11 77.5t-32 69.5l80 64zM425 38q-75 0 -128.5 53t-53.5 128q0 76 53.5 129.5t128.5 53.5q76 0 129 -53.5t53 -129.5
q0 -75 -53 -128t-129 -53z" />
    <glyph glyph-name="uniE63A" unicode="&#xe63a;" 
d="M176 191q-31 0 -56.5 15t-40.5 41t-15 56q0 46 32.5 79t79.5 33q30 0 56 -15t41 -41t15 -56q0 -46 -33 -79t-79 -33zM511 191q-46 0 -79 33t-33 79t33 79t79.5 33t79 -33t32.5 -79t-32.5 -79t-79.5 -33zM847 191q-23 0 -43.5 9t-35.5 24t-24 35.5t-9 43.5q0 46 33 79
t79 33q30 0 56 -15t41 -41t15 -56q0 -23 -9 -43.5t-24 -35.5t-35.5 -24t-43.5 -9zM847 191z" />
    <glyph glyph-name="uniE63B" unicode="&#xe63b;" 
d="M786 809h-535q-7 0 -14 -2.5t-12.5 -6.5t-10 -9.5t-6.5 -12.5t-2 -15v-55v-22v-715v-51v-83q0 -19 13 -32.5t32 -13.5h78h168h44h167h78q19 0 32.5 13.5t13.5 32.5v107v27v715v45v32q0 13 -6 23.5t-16.5 16.5t-23.5 6zM580 754q2 2 4 3l6 2q2 1 5 1t5 -1l6 -2q2 -1 4 -3
q3 -4 4.5 -7.5t1.5 -8t-1.5 -8t-4.5 -6.5q-6 -7 -15 -7t-15 6q-6 7 -6 16q0 8 6 15zM457 760h59q8 0 14.5 -6.5t6.5 -15t-6.5 -15t-14.5 -6.5h-59q-6 0 -11 3t-8 8t-3 10q0 17 17 21q3 1 5 1zM519 -166q-14 0 -25 6.5t-17.5 18t-6.5 24.5q0 21 14 35.5t34.5 14.5t35 -14.5
t14.5 -35t-14.5 -35t-34.5 -14.5zM787 -29h-536v698h536v-698z" />
    <glyph glyph-name="uniE63C" unicode="&#xe63c;" 
d="M885 362q-16 15 -35.5 23.5t-41.5 8.5h-8v118q0 58 -22.5 110.5t-61.5 92.5q-40 39 -92.5 61t-110.5 22q-116 0 -200 -82l-2 -2q-40 -39 -62.5 -91.5t-22.5 -110.5v-118h-8q-22 0 -42 -8.5t-35 -23.5v-1q-32 -30 -32 -76v-400q0 -46 32 -76q10 -10 22 -17.5t26.5 -11.5
t28.5 -4h590q21 0 39.5 7.5t34.5 22.5l3 3q32 32 32 76v400q0 15 -4 29t-11 26t-17 22v0zM316 512q0 82 58 139l2 2q58 55 137 55q81 0 139 -57t58 -139v-118h-394v118zM827 -115q0 -3 -1.5 -7t-4.5 -6l-1 -2q-5 -5 -12 -5h-590q-8 0 -13 6t-5 14v399q0 7 5 14q3 2 6.5 3.5
t6.5 1.5h590q8 0 13 -5q2 -2 3.5 -4t2 -4.5t0.5 -5.5v-399zM513 234q-22 0 -42 -8.5t-35 -23.5q-31 -31 -31 -77q0 -22 8.5 -42t22.5 -35q4 -5 8.5 -8.5t9.5 -6.5t10 -5.5t10.5 -5t11.5 -3.5v-55q0 -12 8 -19.5t20 -7.5q5 0 10 2t8.5 5.5t6 8.5t2.5 11v55q27 7 49 29
q32 33 32 77q0 46 -32 77q-32 32 -77 32v0zM552 86q-17 -16 -38 -16h-3q-10 0 -19.5 4.5t-17.5 11.5q-16 16 -16 38q0 24 16 39q8 7 18 11.5t21 4.5t21.5 -4.5t17.5 -12t11.5 -17.5t4.5 -21q-1 -21 -16 -38v0z" />
    <glyph glyph-name="uniE63D" unicode="&#xe63d;" 
d="M448 320l-64 64l-192 -192l192 -192l64 64l-128 128zM576 64l64 -64l192 192l-192 192l-64 -64l128 -128zM903 697l-142 142q-24 24 -64 40.5t-73 16.5h-480q-33 0 -56.5 -23.5t-23.5 -56.5v-864q0 -33 23.5 -56.5t56.5 -23.5h736q33 0 56.5 23.5t23.5 56.5v608
q0 33 -16.5 73t-40.5 64zM858 651q5 -4 9 -11h-163v163q7 -4 11 -9zM896 -48q0 -7 -4.5 -11.5t-11.5 -4.5h-736q-7 0 -11.5 4.5t-4.5 11.5v864q0 7 4.5 11.5t11.5 4.5h480q7 0 16 -2v-254h254q1 -4 1.5 -8t0.5 -8v-608z" />
    <glyph glyph-name="uniE63E" unicode="&#xe63e;" 
d="M339 -66q-20 -20 -48.5 -20t-48.5 20l-96 96q-20 20 -20 48.5t20 48.5l125 125l117 117q-39 24 -85.5 18.5t-80.5 -39.5l-173 -173q-40 -40 -40 -96.5t40 -96.5l145 -145q40 -40 96.5 -40t96.5 40l173 173q34 34 39 80.5t-18 85.5zM975 618l-145 145q-16 15 -35.5 25
t-40.5 13t-41.5 0t-40 -13t-35.5 -25l-173 -173q-34 -34 -39.5 -80.5t18.5 -85.5l242 242q13 13 30.5 18t35 0t31.5 -18l96 -96q13 -14 18 -31.5t0 -35t-18 -30.5l-242 -242q26 -15 56 -18t59 7t51 32l173 173q26 26 35.5 61t0 70.5t-35.5 61.5zM327 139l24 -24
q15 -15 36 -15t36 15l274 274q15 15 15 36t-15 36l-24 24q-7 8 -16.5 11.5t-19.5 3.5t-19.5 -3.5t-16.5 -11.5l-274 -274q-8 -7 -11.5 -16.5t-3.5 -19.5t3.5 -19.5t11.5 -16.5z" />
    <glyph glyph-name="uniE63F" unicode="&#xe63f;" 
d="M932 611v-317h-500v-137l-323 186l323 186v-136h402v218h98zM932 611z" />
    <glyph glyph-name="uniE640" unicode="&#xe640;" 
d="M238 551q0 -4 -1 -8t-3.5 -7.5t-5.5 -5.5t-7 -3.5t-8 -1.5h-125q-11 0 -18.5 7.5t-7.5 18.5v123q0 10 7.5 17.5t18.5 7.5h125q10 0 17.5 -7.5t7.5 -17.5v-123zM957 569q0 -9 -4 -17.5t-10 -14.5t-14.5 -10t-18.5 -4h-535q-19 0 -32.5 13.5t-13.5 32.5v86q0 13 6 23.5
t16.5 16.5t23.5 6h535q20 0 33.5 -13.5t13.5 -32.5v-86zM238 239q0 -11 -7.5 -18.5t-17.5 -7.5h-125q-7 0 -13 3.5t-9.5 9.5t-3.5 13v122q0 11 7.5 18.5t18.5 7.5h125q10 0 17.5 -7.5t7.5 -18.5v-122zM957 257q0 -19 -13.5 -32.5t-33.5 -13.5h-535q-19 0 -32.5 13.5
t-13.5 32.5v86q0 12 6 23t16.5 17t23.5 6h535q13 0 23.5 -6t17 -17t6.5 -23v-86zM238 -76q0 -10 -7.5 -17.5t-17.5 -7.5h-125q-11 0 -18.5 7.5t-7.5 17.5v123q0 11 7.5 18.5t18.5 7.5h125q10 0 17.5 -7.5t7.5 -18.5v-123zM957 -57q0 -19 -13.5 -32.5t-33.5 -13.5h-535
q-19 0 -32.5 13.5t-13.5 32.5v86q0 9 3.5 17.5t9.5 14.5t14.5 10t18.5 4h535q20 0 33.5 -13.5t13.5 -32.5v-86z" />
    <glyph glyph-name="uniE641" unicode="&#xe641;" 
d="M958 18q0 -31 -22 -52.5t-52 -21.5h-744q-31 0 -52.5 22t-21.5 52v564q0 31 22 52.5t52 21.5h743q20 0 37 -10t27 -27t10 -37v-564h1zM140 598q-15 0 -15 -15v-565q0 -3 1.5 -5.5t3.5 -4.5t4.5 -3.5t5.5 -1.5h743q6 0 10.5 4.5t4.5 10.5v564q0 4 -2 7.5t-5.5 5.5t-7.5 2
h-743v1zM274 359q-37 0 -63 26t-26 63t26 63.5t63 26.5t63 -26t26 -63t-26 -63.5t-63 -26.5zM839 62h-654v90l149 149l74 -74l238 237l193 -194v-208h-1h1z" />
    <glyph glyph-name="uniE642" unicode="&#xe642;" 
d="M826 302h-128q0 22 5.5 43.5t14.5 40.5t22.5 36t30 30t35.5 22.5t40.5 14.5t43.5 5q27 0 45.5 18.5t18.5 45t-18.5 45.5t-45.5 19q-87 0 -160.5 -43t-116.5 -116.5t-43 -160.5v-256q0 -53 37.5 -90.5t90.5 -37.5h128q35 0 64.5 17t46.5 46.5t17 64.5v128q0 53 -37.5 90.5
t-90.5 37.5zM378 494q27 0 45.5 18.5t18.5 45.5q0 17 -8.5 32t-23 23.5t-32.5 8.5q-86 0 -160 -43t-117 -116.5t-43 -160.5v-256q0 -53 37.5 -90.5t90.5 -37.5h128q53 0 90.5 37.5t37.5 90.5v128q0 35 -17 64.5t-46.5 46.5t-64.5 17h-128q0 89 69 147q54 44 123 45z" />
    <glyph glyph-name="uniE643" unicode="&#xe643;" 
d="M896 832h-768q-26 0 -45 -19t-19 -45v-768q0 -26 19 -45t45 -19h768q26 0 45 19t19 45v768q0 26 -19 45t-45 19zM384 384v128h256v-128h-256zM640 320v-128h-256v128h256zM128 512h192v-128h-192v128zM128 320h192v-128h-192v128zM128 0v128h192v-128h-192zM384 0v128
h256v-128h-256zM896 0h-192v128h192v-128zM896 192h-192v128h192v-128zM896 384h-192v128h192v-128z" />
    <glyph glyph-name="uniE644" unicode="&#xe644;" 
d="M985 363l-195 -194q-9 -9 -21.5 -9t-21.5 9t-9 22t9 22l173 172l-173 172q-9 9 -9 22t9 22t21.5 9t21.5 -9l195 -194q6 -6 8 -14t0 -16t-8 -14zM348 -16q-3 -4 -7 -7.5t-8.5 -5.5t-9 -2.5t-9.5 0.5t-10 4q-11 6 -14.5 19t2.5 25l384 767q5 7 12.5 11.5t15.5 4.5t16 -5
q12 -6 15 -19t-3 -25zM277 169q-9 -9 -21.5 -9t-21.5 9l-195 194q-6 6 -8 14t0 16t8 14l195 194q9 9 21.5 9t21.5 -9q3 -3 5 -6l2 -6q2 -3 2 -7v-6q0 -4 -2 -7l-2 -6q-2 -3 -5 -6l-172 -172l172 -172q3 -3 5 -6l2 -6q2 -3 2 -7v-6q0 -4 -2 -7l-2 -6q-2 -3 -5 -6z" />
    <glyph glyph-name="uniE645" unicode="&#xe645;" horiz-adv-x="1000" 
d="M500 -104q-102 0 -194.5 39.5t-159.5 106.5t-106.5 159.5t-39.5 194.5t39.5 194.5t106.5 159.5t159.5 106.5t194.5 39.5t194.5 -39.5t159.5 -106.5t106.5 -159.5t39.5 -194.5t-39.5 -194.5t-106.5 -159.5t-159.5 -106.5t-194.5 -39.5v0zM500 771q-102 0 -188.5 -50
t-136.5 -136.5t-50 -188.5t50 -188.5t136.5 -136.5t188.5 -50t188.5 50t136.5 136.5t50 188.5t-50 188.5t-136.5 136.5t-188.5 50zM688 333h-188q-26 0 -44 18.5t-18 44.5v187q0 26 18 44.5t44 18.5t44.5 -18.5t18.5 -44.5v-125h125q25 0 43.5 -18t18.5 -44t-19 -45
q-6 -6 -12.5 -10t-14.5 -6t-16 -2v0zM688 333z" />
    <glyph glyph-name="uniE646" unicode="&#xe646;" 
d="M147 618h243v-60h-243v60zM147 80h243v-60h-243v60zM448 618h543v-60h-543v60zM448 439h543v-61h-543v61zM448 80h539v-62h-539v62zM448 258h358v-61h-358v61zM390 378l-60 60l-59 61h-60h-59l59 -121h-183v-120h183l-59 -120h59h60l59 59l60 61v1l58 57z" />
    <glyph glyph-name="uniE647" unicode="&#xe647;" 
d="M877 201l-335 337q-11 11 -27 11l-1 1h-2q-8 0 -16 -3q-7 -3 -13 -9l-302 -302q-7 -7 -9.5 -16.5t0 -19t9.5 -17.5q2 -2 5.5 -4t6.5 -3.5t7 -2.5t7 -1q5 0 9.5 1.5t9 4t8.5 5.5l240 241v-486q0 -15 11 -26t27 -11q10 0 18.5 5t13.5 13.5t5 18.5v487l275 -277
q11 -11 26.5 -11t26.5 11q7 7 10 16.5t0 19.5t-10 17zM922 625h-821q-10 0 -18.5 5t-13.5 13.5t-5 18.5q0 15 10.5 26t26.5 11h821q8 0 15 -3t12 -8t7.5 -11.5t2.5 -14.5q0 -10 -4.5 -18.5t-13.5 -13.5t-19 -5zM922 625z" />
    <glyph glyph-name="uniE648" unicode="&#xe648;" 
d="M132 -80h759q15 0 25 -10t10 -24t-10 -24t-25 -10h-759q-14 0 -24 10t-10 24t10 24t24 10zM847 310l-311 -310q0 -1 -1 -2h-1v-1h-1v-1h-1h-1v-1h-1v-1h-1h-1v-1h-2v-1v0h-1h-1l-1 -1h-1h-2v-1h-1h-1v0h-1h-1v0h-1h-1h-2h-1h-1h-1h-1h-1h-1h-1h-1v1h-1h-1v0h-1l-1 1h-1
h-1l-1 1h-1v1h-1h-1v1v0h-1l-1 1v0h-1v1h-1l-1 1v0l-1 2l-311 310q-10 10 -10 24.5t10 24.5t24 10t25 -10l251 -252v607q0 14 10.5 24t24.5 10t24 -10t10 -24v-607l252 252q10 10 24.5 10t24.5 -10q5 -5 7.5 -11.5t2.5 -13t-2.5 -13t-7.5 -11.5z" />
    <glyph glyph-name="uniE649" unicode="&#xe649;" 
d="M953 286q-3 -6 -8 -11l-272 -272q-10 -10 -24.5 -10t-25.5 10q-19 19 -5 42q3 4 5 7l249 249l-248 247q-10 10 -10 24.5t10 24.5q7 7 16 9.5t18 0t16 -9.5l272 -272q17 -16 7 -39zM725 286q-2 -6 -8 -11l-340 -340q-10 -11 -24 -11q-7 0 -14 3l-4 2q-2 1 -4 2.5t-3 3.5
q-13 12 -10 30v142h-216v0q-2 0 -8 1q-1 0 -2 1h-3q-1 0 -1.5 1t-1.5 1q-18 10 -18 30v0v318q0 14 10 24t24 10v0h216v147q0 4 1 7.5t2 6.5q5 13 19 19q21 9 38 -8l340 -340q8 -7 10 -18t-3 -21z" />
    <glyph glyph-name="uniE64A" unicode="&#xe64a;" 
d="M956 141q0 -14 -10 -24t-24 -10h-216v-145q1 -9 -3 -17q0 -1 -2 -2l-1 -2q0 -1 -1 -2l-3 -4q-10 -10 -24 -10q-7 0 -14 2q-3 2 -6 3.5t-5 4.5l-341 340q-2 2 -4 5t-3 7q-11 22 6 39l341 339q10 11 26 10q4 0 10 -2h2q5 -2 9 -5t7 -7t4.5 -9t1.5 -11v-148h216
q3 0 6.5 -0.5t6 -2t5.5 -3t5.5 -4t4.5 -5t3.5 -5.5t2 -6.5t0.5 -7.5v-318v0zM152 301l248 -249q7 -6 9.5 -15t0 -18t-9.5 -16q-10 -10 -24.5 -10t-24.5 10l-272 272l-8 12q-10 22 7 39l272 271q5 5 11.5 7.5t13 2.5t13 -2.5t11.5 -7.5q7 -7 9.5 -15.5t0 -17.5t-9.5 -16z" />
    <glyph glyph-name="uniE64B" unicode="&#xe64b;" 
d="M962 -160l-35 -38q-7 -7 -16 -9.5t-18.5 0t-16.5 9.5l-142 153q-55 -34 -118 -34q-94 0 -165 74t-73 175h-181v64h187q7 32 23 64h-210v64h257q-1 -1 -1 -2q21 21 45.5 35.5t53 22.5t57.5 8q63 0 118.5 -35t88.5 -94.5t33 -126.5q0 -70 -34 -129l142 -152q25 -27 5 -49z
M609 349q-66 0 -113.5 -50t-47.5 -121.5t51 -125.5t117 -54q44 0 81 23t58.5 62.5t21.5 86t-23 88.5t-62 66.5t-83 24.5zM197 617h420v-63h-420v63zM617 475q-28 -9 -53 -21t-46 -28h-321v64h420v-15zM677 487v194h-540v-638h254q5 -18 11.5 -35t14 -33t17 -31t20.5 -29
h-317q-25 0 -42.5 18.5t-17.5 45.5v766q0 27 17.5 45.5t42.5 18.5h540q7 0 13.5 -1.5t12.5 -5t11 -7.5t9 -9.5t7 -12t5 -13.5t2 -15v-258q-4 0 -10 1t-11 1.5t-10 0.5q-6 0 -19 -2q-7 -1 -10 -1zM677 487z" />
    <glyph glyph-name="uniE64C" unicode="&#xe64c;" 
d="M832 672h-640q-53 0 -90.5 -37.5t-37.5 -90.5v-512q0 -53 37.5 -90.5t90.5 -37.5h640q53 0 90.5 37.5t37.5 90.5v512q0 53 -37.5 90.5t-90.5 37.5zM512 512q0 13 9.5 22.5t22.5 9.5h64q13 0 22.5 -9.5t9.5 -22.5v-64q0 -13 -9.5 -22.5t-22.5 -9.5h-64q-13 0 -22.5 9.5
t-9.5 22.5v64zM512 320v-64q0 -13 -9.5 -22.5t-22.5 -9.5h-64q-13 0 -22.5 9.5t-9.5 22.5v64q0 13 9.5 22.5t22.5 9.5h64q13 0 22.5 -9.5t9.5 -22.5zM320 512q0 13 9.5 22.5t22.5 9.5h64q13 0 22.5 -9.5t9.5 -22.5v-64q0 -13 -9.5 -22.5t-22.5 -9.5h-64q-13 0 -22.5 9.5
t-9.5 22.5v64zM128 512q0 13 9.5 22.5t22.5 9.5h64q13 0 22.5 -9.5t9.5 -22.5v-64q0 -13 -9.5 -22.5t-22.5 -9.5h-64q-13 0 -22.5 9.5t-9.5 22.5v64zM256 64q0 -13 -9.5 -22.5t-22.5 -9.5h-64q-13 0 -22.5 9.5t-9.5 22.5v64q0 13 9.5 22.5t22.5 9.5h64q13 0 22.5 -9.5
t9.5 -22.5v-64zM288 224h-64q-13 0 -22.5 9.5t-9.5 22.5v64q0 13 9.5 22.5t22.5 9.5h64q13 0 22.5 -9.5t9.5 -22.5v-64q0 -13 -9.5 -22.5t-22.5 -9.5zM576 64q0 -13 -9.5 -22.5t-22.5 -9.5h-192q-13 0 -22.5 9.5t-9.5 22.5v64q0 13 9.5 22.5t22.5 9.5h192q13 0 22.5 -9.5
t9.5 -22.5v-64zM576 256v64q0 13 9.5 22.5t22.5 9.5h64q13 0 22.5 -9.5t9.5 -22.5v-64q0 -13 -9.5 -22.5t-22.5 -9.5h-64q-13 0 -22.5 9.5t-9.5 22.5zM896 64q0 -13 -9.5 -22.5t-22.5 -9.5h-192q-13 0 -22.5 9.5t-9.5 22.5v64q0 13 9.5 22.5t22.5 9.5h64q13 0 22.5 9.5
t9.5 22.5v128q0 13 9.5 22.5t22.5 9.5h64q13 0 22.5 -9.5t9.5 -22.5v-256zM896 448q0 -13 -9.5 -22.5t-22.5 -9.5h-128q-13 0 -22.5 9.5t-9.5 22.5v64q0 13 9.5 22.5t22.5 9.5h128q13 0 22.5 -9.5t9.5 -22.5v-64z" />
    <glyph glyph-name="uniE64D" unicode="&#xe64d;" 
d="M926 -120l-94 -22q-36 -9 -45 -4t-18 40l-9 36l195 46l6 -23q2 -5 4 -14q9 -34 4 -42t-43 -17zM635 389q-8 35 -3 43t42 17l94 23q36 8 44.5 4.5t15.5 -29.5l114 -423l-195 -46zM503 -148h-59q-40 0 -52.5 7.5t-12.5 42.5v732h188v-732q0 -36 -10 -43t-54 -7zM379 698
q0 8 1 14t2 11.5t3.5 9t4.5 6t6.5 4t8.5 2.5t11 1.5t12.5 1t15.5 0.5h59q40 0 52 -8t12 -42v-39h-188v39zM250 -148h-148q-38 0 -45 7t-7 43v42h252v-42v-16q0 -6 -1 -12.5t-2 -9t-4 -5.5t-6 -4t-9.5 -2t-12.5 -1h-17zM50 12h252v-44h-252v44zM50 399h252v-362h-252v362z
M50 511v21q0 7 2.5 13.5t4.5 9t9.5 4.5t14.5 2h21h148q21 0 29.5 -0.5t15 -6.5t7 -14.5t0.5 -28.5v-63h-252v63zM50 511z" />
    <glyph glyph-name="uniE64E" unicode="&#xe64e;" 
d="M204 237h27h5h594h11h12q16 0 22.5 10.5t0.5 25.5l-77 162q-3 8 -9.5 14.5t-14 11t-16 7.5t-16.5 3h-134v121v117q0 16 -11.5 27.5t-27.5 11.5h-78q-10 0 -19 -5t-14.5 -14t-5.5 -20v-117v-121h-139q-16 0 -32.5 -10.5t-23.5 -25.5l-76 -162q-4 -10 -3 -18t8 -13t17 -5z
M835 179h-598q3 -58 -6 -102t-42 -73q-20 -18 -31 -36.5t-12.5 -35.5t4 -32.5t16.5 -27.5t26 -20h102q64 87 81 170l4 27q-1 -11 -4 -27q-24 -151 -38 -170h74q64 87 81 170q1 5 1.5 9.5t1 7.5t1 5.5t0.5 3.5v1q-1 -11 -4 -27q-24 -151 -38 -170h93q64 88 81 170
q1 5 1.5 9.5t1 7.5t1 5.5t0.5 3.5v1q-1 -11 -4 -27q-23 -151 -37 -170h93q10 14 22 33t31.5 60.5t27.5 76.5q1 8 2 14.5t1 9.5l1 3q-1 -11 -4 -27q-24 -151 -38 -170h94l6 3q4 2 14.5 9.5t17.5 17t11.5 26.5t2.5 37q-3 19 -7 52q-4 28 -5.5 41.5t-5 35t-6 36t-6.5 33
t-8 36.5z" />
    <glyph glyph-name="uniE64F" unicode="&#xe64f;" 
d="M946 -196h-868q-17 0 -31 8.5t-22.5 22.5t-8.5 31v775q0 26 18 44t44 18h248v62q0 8 4 15.5t11 11.5t15.5 4t15.5 -4t11.5 -11.5t4.5 -15.5v-62h248v62q0 13 9 22t22 9t22 -9t9 -22v-62h248q17 0 31 -8t22.5 -22.5t8.5 -31.5v-775q0 -26 -18 -44t-44 -18zM946 641h-248
v-31q0 -4 -1 -7.5t-2.5 -6.5t-3.5 -5.5t-5 -4.5t-6 -3.5t-6.5 -2.5t-6.5 -1q-13 0 -22 9t-9 22v31h-248v-31q0 -13 -9 -22t-22 -9q-5 0 -10 1.5t-8.5 4.5t-6.5 6.5t-4.5 8.5t-1.5 10v31h-248v-775h868v775zM639 374l-153 -319h-73l153 305v1h-170v57h243v-44z" />
    <glyph glyph-name="uniE650" unicode="&#xe650;" 
d="M512 523q46 0 79 33t33 79t-33 79t-79 33q-23 0 -43.5 -9t-35.5 -24t-24 -35.5t-9 -43.5q0 -46 33 -79t79 -33zM512 412q-46 0 -79 -33t-33 -79q0 -30 15 -56t41 -41t56 -15q46 0 79 33t33 79t-33 79t-79 33zM512 77q-46 0 -79 -33t-33 -79t33 -79t79 -33t79 33t33 79
t-33 79t-79 33z" />
    <glyph glyph-name="uniE651" unicode="&#xe651;" 
d="M893 769h-26q-47 0 -91 5.5t-75.5 14.5t-60.5 20.5t-46.5 21.5t-32.5 20t-19 15l-7 6l-23 24l-23 -24l-4 -4q-3 -3 -11.5 -9.5t-19.5 -14t-27.5 -16t-35.5 -17t-45 -16t-53.5 -13.5t-62.5 -9.5t-73 -3.5h-9h-8h-9l-33 1v-461q0 -43 7 -79.5t31.5 -86t66.5 -92t118 -89.5
t180 -86l11 -4l11 4q104 39 180 86t118 89.5t66.5 92t31.5 86t7 79.5v461zM477 189l-208 190l55 46l110 -84l6 5l15 16q12 12 24.5 24t31.5 29t37.5 33.5t42.5 35t46.5 35t48 32.5t48.5 28l21 -24q-7 -7 -20 -18.5t-50 -50t-70 -79t-72.5 -100.5t-65.5 -118z" />
    <glyph glyph-name="uniE652" unicode="&#xe652;" 
d="M692 326q2 2 4.5 4t4.5 4.5t4 4.5q17 -7 39 -12t57 -8t77 8t81 36q-4 -1 -10 -1.5t-23.5 -1.5t-34.5 -1t-39.5 2.5t-40.5 7.5t-34.5 15t-25.5 24v1v0h-1v0l-6 -7l-8 -8q-6 -6 -10 -9.5t-11 -10.5t-13 -11.5t-14.5 -11t-16.5 -12t-18 -11t-21 -10.5q-74 -34 -180 -34
q-50 0 -93.5 14t-65.5 28t-48.5 35.5t-30.5 24.5l-15 9q-10 6 -13 7t-10.5 2.5t-15 -1t-19.5 -8.5q-15 -7 -28 -18.5t-22 -23t-15 -22.5t-9 -17l-3 -7q35 14 69 15t50.5 -5t26.5 -13h1q1 -1 2 -1v0q8 -6 17 -12t19 -11q-2 -6 -5 -12.5t-7 -11t-8.5 -9t-8.5 -7.5t-7.5 -5
t-5.5 -3l-2 -1q58 9 79 32q18 -7 37 -13q-1 -17 -12.5 -34t-21.5 -25l-10 -8q35 6 54.5 23t26.5 36q11 -2 22 -3.5t22 -2.5q3 -9 3.5 -20t-1 -20.5t-3.5 -17.5t-3 -13l-2 -4q31 24 45 73h13q7 0 13.5 0.5t12.5 0.5q22 -48 53 -72q-3 4 -5 10.5t-6.5 28t0.5 39.5l10 2l10 2
l10 2q30 -44 112 -52q-2 1 -6 2.5t-14.5 7.5t-18.5 13.5t-14 20t-6 26.5q14 6 27 14q11 -10 28.5 -19.5t63.5 -18t103 -4.5q-1 0 -4 0.5t-10.5 2.5t-15.5 4t-19 6t-20.5 9t-20 12t-19 14.5t-15.5 18t-11 22.5z" />
    <glyph glyph-name="uniE653" unicode="&#xe653;" 
d="M606 -151zM443 160h-110v91v11q82 13 137 77.5t55 149.5q0 46 -18 89t-49 73.5t-73.5 49t-89.5 17.5q-95 0 -162.5 -67t-67.5 -163q1 -85 56 -149t137 -77v-11v-91h-113q-5 0 -10 -1.5t-9 -4t-7.5 -6t-6 -7.5t-3.5 -8.5t-1 -10.5q0 -15 11 -26t26 -11h113l1 -132
q0 -16 10.5 -26.5t26 -10.5t26.5 10.5t11 26.5v132h111q15 0 26 11t11 26.5t-11 26.5t-27 11zM765 373v217l69 -71q11 -11 27 -11q15 0 26 11t11 26.5t-10 26.5l-109 110q-17 23 -43 26q-31 3 -58 -24l-111 -113q-11 -11 -11 -26q0 -10 5 -18.5t14 -13.5t19 -5q15 0 26 11
q4 4 11 11.5t25.5 26.5t33.5 33v-217q-82 -14 -137 -78t-55 -149q0 -63 30.5 -116t83.5 -83.5t116 -30.5q95 0 162.5 67.5t67.5 162.5q-1 85 -56 149t-137 78z" />
    <glyph glyph-name="uniE654" unicode="&#xe654;" 
d="M794 -50v103h103v-103h-103zM512 209q-158 0 -217.5 -32t-63.5 -124h153q9 0 16.5 -3t14 -7.5t11 -11t7.5 -14t3 -16.5q0 -14 -7 -25.5t-19 -18.5t-26 -7h-256v40q0 90 20.5 150.5t67 99t118 54.5t178.5 16q52 0 94 -3.5t79 -10.5t65.5 -19t52 -29t40.5 -40t28 -53h-113
q-50 54 -246 54zM512 360q-95 0 -162.5 67.5t-67.5 163t67.5 163t163 67.5t163 -67.5t67.5 -163.5q0 -37 -11.5 -72t-33 -63.5t-50 -50t-63.5 -33t-73 -11.5zM512 719q-53 0 -90.5 -37.5t-37.5 -91.5q0 -34 17.5 -63.5t47 -47t63.5 -17.5q26 0 50 10.5t41 27.5t27.5 40.5
t10.5 49.5q0 35 -17.5 64.5t-47 47t-64.5 17.5zM589 -50h-102v103h102v-103zM743 -50h-102v103h102v-103z" />
    <glyph glyph-name="uniE655" unicode="&#xe655;" 
d="M640 224v-166q0 -11 -7.5 -18.5t-18.5 -7.5h-230v539q0 37 -36 55l-220 110h486q11 0 18.5 -7.5t7.5 -18.5v-230h64v282q0 16 -11 27t-27 11h-628q-7 0 -14.5 -3t-12.5 -8t-8 -12.5t-3 -14.5v-756q0 -23 21 -34q4 -2 47.5 -25.5t94 -51t107 -58t85.5 -46.5q9 -4 15.5 -3
t10 5t3.5 10v165h282q16 0 27 11.5t11 26.5v218h-64zM960 352l-192 192v-128h-320v-128h320v-128z" />
    <glyph glyph-name="uniE656" unicode="&#xe656;" 
d="M512 806q-82 0 -159 -25.5t-139 -72t-108.5 -108.5t-72 -139t-25.5 -159t25.5 -159t72 -139t108.5 -108.5t139 -72t159 -25.5t159 25.5t139 72t108.5 108.5t72 139t25.5 159q0 59 -13.5 115.5t-38.5 106t-59 93.5t-78 78t-93.5 59t-106 38.5t-115.5 13.5zM650 270
l131 -131q14 -14 14 -33.5t-14 -33.5l-37 -37q-9 -9 -21 -12.5t-24.5 0t-21.5 12.5l-131 131q-13 13 -33 13t-33 -13l-131 -131q-9 -9 -21 -12.5t-24.5 0t-21.5 12.5l-37 37q-14 14 -14 33.5t14 33.5l131 131q13 13 13 33t-13 33l-131 131q-9 9 -12.5 21t0 24.5t12.5 21.5
l37 37q7 7 16 10.5t18 3.5t17.5 -3.5t15.5 -10.5l131 -131q6 -6 15 -9.5t18 -3.5t18 3.5t15 9.5l131 131q7 7 16 10.5t17.5 3.5t17.5 -3.5t16 -10.5l37 -37q14 -14 14 -33.5t-14 -33.5l-131 -131q-13 -13 -13 -33t13 -33z" />
    <glyph glyph-name="uniE657" unicode="&#xe657;" 
d="M343 -12q-18 0 -30 12.5t-12 29.5v320l-35 -37q-12 -12 -31 -12q-8 0 -15.5 3t-13.5 8l-99 97q-13 12 -13 29.5t12 29.5l156 162q10 10 17.5 15.5t10.5 6t6 0.5h99q19 0 25.5 -1.5t11.5 -5.5l5 -6v-8q0 -29 21 -48q10 -9 24 -13.5t30 -4.5q33 0 54 18t21 48v7l5 7
q5 4 11.5 5.5t25.5 1.5h98q4 0 7 -0.5t10.5 -6t17.5 -15.5l156 -162q12 -12 12 -29.5t-13 -29.5l-99 -97q-12 -11 -29 -11q-18 0 -31 12l-35 37v-320q0 -17 -12 -29.5t-30 -12.5h-338v0z" />
    <glyph glyph-name="uniE658" unicode="&#xe658;" 
d="M960 544q0 -26 -19 -45t-45 -19h-768q-26 0 -45 19t-19 45t19 45t45 19h768q26 0 45 -19t19 -45zM704 288q0 -26 -19 -45t-45 -19h-512q-26 0 -45 19t-19 45t19 45t45 19h512q26 0 45 -19t19 -45zM512 32q0 -26 -19 -45t-45 -19h-320q-26 0 -45 19t-19 45t19 45t45 19
h320q26 0 45 -19t19 -45z" />
    <glyph glyph-name="uniE659" unicode="&#xe659;" 
d="M296 541zM247 503q15 0 27.5 9t20 24.5t7.5 33.5v75q0 28 -16 47.5t-38.5 19.5t-38.5 -19.5t-16 -47.5v-75q0 -7 1 -13.5t3 -12.5t5 -11.5t7 -10t8 -8t9 -6t10.5 -4t10.5 -1.5zM955 575q0 10 -2.5 18t-6 14t-8 10.5t-9 7t-9.5 4t-9 2.5t-7 1h-6h-2h-2h-28h-2v-106
q0 -2 -0.5 -5t-3 -11t-7 -14.5t-14 -11.5t-21.5 -5h-9h-70h-13q-20 1 -31 12.5t-12 22.5v11v107h-3h-338h-3v-107v-3q0 -1 -0.5 -5.5t-2 -9t-5 -9.5t-7.5 -9t-11.5 -6.5t-17.5 -3.5h-12h-29h-24h-17h-4h-5q-9 0 -16.5 2.5t-12.5 7t-8.5 9.5t-5 10t-2.5 9t-1 6v3v106h-2h-28
h-2h-6q-4 0 -14 -2.5t-18 -7.5t-14.5 -17.5t-7.5 -29.5v-4v-591q0 -12 3.5 -22t8.5 -16.5t12.5 -11t13 -6.5t12 -3.5t8.5 -1.5h4h766q2 0 6.5 0.5t15 4t18.5 9t14.5 18t6.5 29.5q0 25 1 591q-1 2 -1 4zM512 44q0 -57 -172 -57q-174 0 -174 57v12q0 24 34.5 47.5t79.5 40.5
q2 1 5 3t6.5 6.5t3.5 11t-3 17.5q-13 13 -23.5 31t-16.5 39t-6 41q0 47 27 73t66 26q11 0 21 -2t19.5 -6t17.5 -10t14.5 -14.5t11 -18.5t7 -22t2.5 -26q0 -30 -12.5 -60t-32.5 -51q-6 -14 -3 -23t5.5 -11.5t5.5 -3.5q47 -16 82 -39.5t35 -48.5v-12zM817 65h-194
q-9 0 -16.5 3.5t-13 9t-9 13t-3.5 16.5q0 17 12.5 29t29.5 12h194q18 0 30 -12t12 -29.5t-12 -29.5t-30 -12zM817 230h-194q-5 0 -9.5 1t-9 3t-8 5t-6.5 6.5t-5 8t-3 9t-1 9.5q0 11 5.5 20.5t15.5 15.5t21 6h194q28 0 39 -26q3 -8 3 -16q0 -17 -12 -29.5t-30 -12.5z
M774.5 503q22.5 0 38.5 19.5t16 47.5v75q0 28 -17 47.5t-40 19.5q-22 0 -37 -19.5t-15 -47.5v-75q0 -28 16 -47.5t38.5 -19.5z" />
    <glyph glyph-name="uniE65A" unicode="&#xe65a;" 
d="M237 37q0 19 -13.5 32.5t-32.5 13.5h-124q-20 0 -33.5 -13.5t-13.5 -32.5t13.5 -33t33.5 -14h124q19 0 32.5 14t13.5 33zM20 300q0 -19 13.5 -32.5t33.5 -13.5h124q19 0 32.5 13.5t13.5 32.5q0 13 -6 23.5t-17 17t-23 6.5h-124q-20 0 -33.5 -14t-13.5 -33zM66 517h125
q19 0 32.5 13.5t13.5 32.5q0 13 -6 23.5t-17 17t-23 6.5h-125q-12 0 -23 -6.5t-17 -17t-6 -23.5q0 -19 13.5 -32.5t32.5 -13.5zM928 749h-48h-17h-207h-496q-13 0 -24 -6t-17 -17t-6 -23v-47h78q38 0 65.5 -27t27.5 -65.5t-27.5 -66t-65.5 -27.5h-78v-77h78q38 0 65.5 -27
t27.5 -65.5t-27.5 -66t-65.5 -27.5h-78v-77h78q9 0 18.5 -2t17.5 -5.5t15.5 -8.5t14 -11.5t11.5 -14t8.5 -15.5t5.5 -17.5t2 -18.5q0 -39 -27.5 -66t-65.5 -27h-78v-46q0 -13 6 -23.5t17 -17t24 -6.5h457h39h207h65q26 0 45 13.5t19 33.5v805q0 4 -1.5 8.5t-4 9t-6 8
t-7.5 6.5t-9.5 6t-11 4.5t-12 2.5t-12.5 1zM691 537q18 16 27 39v6q4 23 11 23q2 1 6 4l3 2q3 0 6.5 -2.5t7.5 -6.5q22 -10 27 -20q0 -9 -3 -19q23 -22 43 -36.5t37.5 -22.5t32.5 -9q-16 -68 -45 -68q-43 16 -97 87q-50 -68 -83 -74q-39 3 -45 61q9 1 18 3.5t18 7t18 11
t18 14.5zM384 482q43 13 66 32q20 26 33 55v3q7 26 14 26q1 2 3 3.5t6 3.5q7 -2 13 -10q23 -10 27 -19q0 -4 -1 -7t-3 -6v-4q2 -3 7 -9q29 -26 47 -33q14 -6 16 -13q-16 -65 -23 -68q-16 7 -76 68q-10 -13 -19 -24.5t-17.5 -20.5t-16 -16t-15 -12t-13.5 -7.5t-12 -3.5
q-36 3 -47 58q1 0 4 1t7 3zM783 148v-3v-1l-4 -40v-47q0 -13 2 -16q-2 -13 0 -29q2 -20 2 -30q-2 -9 -9 -16l-9 -3q-20 3 -27 10h-106h-106q-2 -3 -4 -4.5t-5 -3t-6 -2t-7 -0.5q-23 3 -23 16v10q5 13 5 19v8l2 10v8v10v16q0 13 -2 39q-3 26 0 42q-2 2 -3 4q-6 12 -4 19
q2 23 27 29l2 -3h9h84h148q7 3 14 3q9 -3 25 -16q-2 -4 0 -7l2 -3q0 -6 -7 -19zM835 235q-41 0 -93 36v-36q0 -9 -6 -9h-72q-18 1 -31.5 1.5t-24 1t-17.5 0.5q-13 0 -38 -3q-25 -7 -36 -4h-4q-6 5 -5 10q-2 3 0 13q1 5 1.5 9t0.5 7q-54 -32 -92 -32q-18 0 -30.5 10.5
t-19.5 31.5l-4 26q160 3 232 117q7 29 20 35q18 0 27 -9q2 -3 3 -4q20 -6 20 -19q-1 -3 -1.5 -5.5t-1.5 -4.5t-2 -3q48 -47 104 -70.5t122 -23.5h4q-4 -19 -9.5 -33t-12.5 -23t-15.5 -14t-18.5 -5zM497 375q0 -7 2 -4q11 -1 18 2.5t10.5 11t3.5 19.5q0 19 4 29q2 7 2 13v4
q0 2 -0.5 4.5t-1.5 4.5h-9h-16h-9q-18 0 -15 -13q2 -21 4.5 -39t6.5 -32zM605 125h-63v-62v-32h74h111v94h-88h-34zM628 358q-28 -32 -79 -74h6h167q-31 19 -85 65q-7 6 -9 9zM747 394q5 3 9 3q14 4 20 65q0 3 -2 10h-9h-25q-13 -3 -13 -7q4 -61 13 -71q2 -3 7 0z" />
    <glyph glyph-name="uniE65B" unicode="&#xe65b;" horiz-adv-x="1042" 
d="M560 131l16 15q9 10 37 40.5t53.5 60.5t56.5 71t53.5 78t38 76.5t15.5 70.5q0 111 -79 190t-190.5 79t-190.5 -79t-79 -190q0 -117 202 -341zM418 542.5q0 58.5 41.5 100t100.5 41.5q39 0 71.5 -19t51.5 -51.5t19 -70.5q0 -59 -41.5 -100.5t-100.5 -41.5t-100.5 41.5
t-41.5 100zM1041 34q-1 4 -3.5 8t-5.5 7t-7 5l-193 96h-1v0q-6 3 -12 3.5t-12 -2.5l-250 -92l-112 58q-13 7 -27 0l-401 -201q-11 -5 -15 -16.5t0.5 -22.5t16 -15.5t22.5 -0.5l187 71l152 -125q4 -3 9 -5t10.5 -1.5t10.5 2.5l236 95l182 -106q7 -4 15 -4q7 0 13 3t10 8
l169 209q9 12 6 26zM387 -121l-117 97l161 81l80 -42zM631 -44l-146 -58l98 107l134 49zM836 -143l-140 82l129 147l139 -69z" />
    <glyph glyph-name="uniE65C" unicode="&#xe65c;" 
d="M803 101l-1 341q0 19 -6.5 35.5t-13.5 26.5t-26 32t-30 35q-14 18 -38 32t-50 26.5t-41 26.5q-11 10 -22 24t-19 25t-15.5 21t-14.5 16t-13 6q-7 0 -16 -9t-17.5 -21.5t-22.5 -29.5t-27 -28q-15 -14 -62.5 -40t-66.5 -50q-10 -12 -21.5 -25t-19 -21t-15.5 -17.5
t-12.5 -18.5t-7.5 -20.5t-3 -25.5l1 -341q-30 0 -52 -21t-30.5 -45.5t-8.5 -45.5h760q0 33 -24 70.5t-65 41.5zM513 -148q41 0 72 26t38 66h-219q3 -20 13 -36.5t24.5 -29t33 -19.5t38.5 -7zM513 -148z" />
    <glyph glyph-name="uniE65D" unicode="&#xe65d;" 
d="M512 896q-139 0 -257 -68.5t-186.5 -186.5t-68.5 -257t68.5 -257t186.5 -186.5t257 -68.5t257 68.5t186.5 186.5t68.5 257t-68.5 257t-186.5 186.5t-257 68.5zM657 384q0 -38 -18 -70.5t-49.5 -52t-68.5 -21.5l-176 -152l-23 13l58 222q-3 7 -5.5 14.5t-4 15t-2.5 15.5
t-1 16q0 58 39.5 99.5t96.5 44.5l176 152l23 -13l-59 -222q14 -30 14 -61zM446 384q0 -27 19.5 -46.5t46.5 -19.5t46.5 19.5t19.5 46.5v0q0 27 -19.5 46.5t-46.5 19.5q-18 0 -33 -9t-24 -24t-9 -33z" />
    <glyph glyph-name="uniE65E" unicode="&#xe65e;" 
d="M828 573h-316q0 36 -25 61t-61 25h-57q-36 0 -61 -25t-25 -61h-87q-35 0 -60.5 -25t-25.5 -61v-460q0 -36 25.5 -61t60.5 -25h632q36 0 61.5 25t25.5 61v460q0 36 -25.5 61t-61.5 25zM512 85q-70 0 -121 50.5t-51 121.5t51 121.5t121.5 50.5t121.5 -50.5t51 -121.5
t-51 -121.5t-122 -50.5zM785 372q-18 0 -30.5 12.5t-12.5 30.5t12.5 30.5t30.5 12.5t30.5 -12.5t12.5 -30.5t-12.5 -30.5t-30.5 -12.5z" />
    <glyph glyph-name="uniE65F" unicode="&#xe65f;" 
d="M509 764q-94 0 -179 -36.5t-147 -98t-98.5 -147t-36.5 -179t36.5 -178.5t98.5 -146.5t147 -98t178.5 -36.5t179 36.5t147 98t98 146.5t36.5 179q0 75 -23.5 145t-66 126.5t-99 99.5t-126.5 66t-145 23zM227 586q48 48 110 78q-46 -61 -73 -145h-92q12 18 25.5 34.5
t29.5 32.5zM140 457h108q-12 -59 -15 -123h-122q5 64 29 123zM111 273h122q1 -16 2 -31.5t3 -31t4.5 -30.5t5.5 -30h-108q-24 59 -29 123zM227 22q-31 31 -55 67h92q27 -85 73 -145q-21 10 -40 22t-36.5 26t-33.5 30zM478 -91q-21 6 -41 21q-39 27 -71 80q-5 9 -10 18.5
t-10 19.5t-9 20t-8 21h149v-180zM478 150h-167q-14 59 -16 123h183v-123zM478 334h-183q2 64 16 123h167v-123zM478 519h-149q8 21 17 41t20 38q31 52 71 80q20 14 41 20v-179zM539 698q21 -6 42 -20q39 -28 70 -80q22 -36 37 -79h-149v179zM539 457h167q14 -59 17 -123
h-184v123zM539 273h184q-1 -16 -2.5 -31.5t-3.5 -31t-4.5 -30.5t-6.5 -30h-167v123zM581 -70q-10 -7 -20.5 -12.5t-21.5 -8.5v180h149q-15 -43 -37 -79q-31 -53 -70 -80zM791 22q-49 -49 -110 -78q22 30 40.5 66.5t31.5 78.5h92q-24 -37 -54 -67zM877 150h-108q13 60 15 123
h122q-1 -21 -5 -42t-10 -41t-14 -40zM906 334h-122q-2 64 -15 123h108q12 -29 19.5 -60t9.5 -63zM753 519q-13 42 -31.5 78.5t-40.5 66.5q8 -4 17 -9l16 -10q9 -5 17 -10t15 -11l16 -12q7 -6 14.5 -12.5t14.5 -13.5q15 -16 28.5 -32.5t25.5 -34.5h-92z" />
    <glyph glyph-name="uniE660" unicode="&#xe660;" 
d="M852 796h-138v-287h252v174q0 47 -33.5 80t-80.5 33zM658 796h-486q-47 0 -80.5 -33t-33.5 -80v-794q0 -47 33.5 -80t80.5 -33h680q47 0 80.5 33t33.5 80v563h-308v344zM212 -164l-40 40l160 161l-160 160l40 40l200 -200zM722 -40v-57h-284v57h284z" />
    <glyph glyph-name="uniE661" unicode="&#xe661;" 
d="M176 529h-115v-518q0 -31 14 -57t39.5 -41.5t56.5 -15.5h3h2v632zM985 529v173h-751v-173v-636h751v116h1v520h-1zM523 -47h-173v172h173v-172zM523 184h-173v173h173v-173zM523 415h-173v170h173v-170zM870 -47h-289v52h289v-52zM870 69h-289v57h289v-57zM870 186h-289
v54h289v-54zM870 298h-289v59h289v-59zM870 415h-289v56h289v-56zM870 531h-289v56h289v-56z" />
    <glyph glyph-name="uniE662" unicode="&#xe662;" 
d="M911 603l-335 193q-26 15 -63.5 15t-63.5 -15l-335 -193q-40 -24 -57 -76q-6 -18 -6 -34v-387q0 -15 5 -31.5t13.5 -31t20 -27t24.5 -20.5l335 -193q26 -15 63.5 -15t63.5 15l335 193q10 6 20 15.5t17.5 21t13.5 23.5t9 25t3 25v387q0 30 -18.5 62.5t-44.5 47.5zM622 299
q0 -92 -65.5 -157.5t-158 -65.5t-157.5 65.5t-65 157.5v171q0 22 15.5 37.5t37 15.5t37 -15.5t15.5 -37.5v-170q0 -49 34.5 -83.5t83.5 -34.5t83 34.5t34 83.5v170q0 22 15.5 37.5t37.5 15.5t37.5 -15.5t15.5 -37.5v-171zM849 129q0 -22 -15.5 -37.5t-37 -15.5t-37 15.5
t-15.5 37.5v341q0 14 7 26t19 19.5t27 7.5q21 0 36.5 -15.5t15.5 -37.5v-341zM849 129z" />
    <glyph glyph-name="uniE663" unicode="&#xe663;" 
d="M767 735l-1 1q-12 6 -24.5 3t-18.5 -15l-17 -29q-5 -8 -5 -16t4.5 -15.5t11.5 -11.5l2 -1q8 -4 16 -4t15.5 4t11.5 11l17 29q4 8 4 16.5t-4 15.5t-12 12zM286 689l-18 31q-6 11 -18.5 14t-23.5 -3l-2 -2q-12 -6 -15 -18.5t3 -23.5l18 -31q6 -11 18.5 -14t23.5 3l3 2
q5 3 9 8t5.5 10.5t0.5 12t-4 11.5zM621 -145h-217q-7 0 -14 -3t-11.5 -9t-6.5 -13q-2 -15 7 -26t24 -11h217q11 0 19.5 6t11.5 15q5 16 -4.5 28.5t-25.5 12.5zM514 807h-4q-8 0 -15 -4t-11.5 -11.5t-4.5 -15.5v-35q0 -5 2 -9.5t4.5 -8.5t6.5 -6.5t8.5 -4.5t9.5 -2h4
q13 0 22 9.5t9 21.5v35q0 13 -9 22t-22 9zM56 481l31 -18q11 -6 23 -3t19 14l1 2q7 12 3.5 24.5t-14.5 18.5l-31 18q-11 6 -23.5 3t-18.5 -14l-2 -2q-4 -8 -4 -16t4 -15.5t12 -11.5zM489 650q-135 -8 -231 -105t-104 -232q-6 -106 45.5 -196.5t140.5 -139.5v-12v-16
q0 -5 1 -9.5t3 -8.5t4.5 -8t5.5 -7t7 -5.5t8 -4.5t9 -3t9 -1h16h218h16q13 0 23.5 6.5t17 17t6.5 23.5v16v12q85 47 136 131t51 184q0 76 -30.5 144.5t-82 117t-122.5 75t-147 21.5zM644 27h-23v-10v-52h-218v62h-23q-83 41 -128.5 123.5t-33.5 179.5q8 67 44.5 123t93 91
t122.5 43q88 9 164.5 -28.5t121 -109t44.5 -157.5t-45 -157t-119 -108zM936 537l-30 -17q-12 -7 -15.5 -19.5t3.5 -24.5l1 -1q7 -11 19 -14.5t24 2.5l30 18q11 6 14.5 18.5t-2.5 24.5l-1 1q-7 11 -19.5 14.5t-23.5 -2.5zM691 380q0 -3 1 -7v0q1 -3 2 -5l2 -4q3 -5 7 -12
l4 -6q7 -7 16 -7q10 0 16.5 7t6.5 16q0 2 -5 18q-1 4 -4.5 9t-6.5 8t-4 3q-6 4 -11 4q-8 0 -15.5 -7t-8.5 -17zM702 435q1 12 -7 19v1q-58 68 -154 87v-1l-5 1q-10 0 -17 -7t-7 -17q0 -14 14 -19v-1q81 -14 132 -74l3 -3q3 -3 8 -6.5t9 -3.5q6 0 11 3.5t8.5 9t4.5 11.5z" />
    <glyph glyph-name="uniE664" unicode="&#xe664;" 
d="M324 -106l96 239q-46 25 -73 69.5t-27 97.5q0 80 56 136t136 56t136 -56t56 -136q0 -53 -27 -97.5t-73 -69.5l96 -239q117 54 188.5 163.5t71.5 242.5q0 122 -60 225t-163 163t-225 60t-225 -60t-163 -163t-60 -225q0 -133 71.5 -242.5t188.5 -163.5z" />
    <glyph glyph-name="uniE665" unicode="&#xe665;" 
d="M956 224q-2 -20 -1 -38.5t1.5 -39t0.5 -39t-3.5 -38.5t-10.5 -38q-15 -39 -46.5 -58.5t-73.5 -20.5q-293 -1 -624 0q-52 1 -87.5 30.5t-41.5 79.5q-3 24 -3 50.5t1 61t1 50.5l8 2q5 -20 5 -21v-63v-62q1 -47 33 -79.5t78 -32.5h635q11 0 22.5 2.5t21 6.5t18.5 10
t16.5 13.5t13.5 16.5t10 19t6.5 21t2.5 22q1 14 0.5 58t0.5 58v5v5q0 2 0.5 5t0.5 5v5q0 3 1 5q6 0 14 -1zM508 -54q-150 0 -309 1q-54 0 -91 31.5t-43 82.5q-5 38 -2 113q1 34 1 50v4l17 4l1 -5q1 -2 2 -6q3 -10 3 -16v-58v-67q1 -15 4.5 -29t10.5 -25.5t16.5 -21.5
t21 -16.5t25.5 -10t28 -4.5h318h317q45 1 75 31t31 75q1 23 0 68v48q0 7 2 21q0 6 1 9v6l24 -2v-5q-2 -21 0 -64q4 -88 -13 -131q-11 -26 -28.5 -44.5t-42 -28t-54.5 -9.5q-152 -1 -315 -1zM74 219q0 -7 -0.5 -15.5t-0.5 -13.5v-16q-2 -75 2 -112q6 -46 40 -75t84 -30h309
q162 0 315 1q86 0 115 75q17 41 13 127q-2 39 -1 59l-4 1v-4v-1q-1 -13 -1 -20v-48q0 -45 -1 -68q0 -49 -33.5 -82.5t-82.5 -33.5h-106h-106h-105h-318q-48 0 -82 34q-16 16 -24.5 37.5t-9.5 45.5v67v58q0 4 -3 13v1zM508 -59q-150 0 -309 1q-37 0 -67 15t-49 42t-23 62
q-5 37 -2 113v10v10v10q0 5 0.5 10t0.5 10v9l26 5l2 -10q0 -2 2 -6q3 -10 3 -16v-59q0 -45 1 -67q0 -43 29 -72t71 -29q157 -1 318 -1q157 0 317 1q42 0 71 28.5t30 72.5v67v48q0 7 2 22v3v2v4l1 10l34 -2v-10q-2 -21 0 -64q3 -29 0.5 -66.5t-13.5 -66.5q-17 -41 -50 -63
t-80 -22q-153 -1 -315 -1zM508 -64q-150 0 -309 1q-39 0 -70 15.5t-50.5 43.5t-23.5 64q-5 38 -3 115q1 33 1 49v13l36 6l3 -14q0 -1 2 -5q3 -12 3 -18q1 -20 0 -59q0 -45 1 -67q0 -41 27.5 -68.5t67.5 -27.5q157 -1 318 -1q157 0 317 1q13 0 25.5 3t23 9.5t19 15t15 19
t10 23t3.5 26.5v67v48q0 4 0.5 8t0.5 6.5t1 7.5h5h-5v9l1 15l45 -3l-1 -15q-1 -20 0 -63q4 -90 -14 -135q-11 -28 -30 -47.5t-45.5 -30t-58.5 -10.5h-77q-38 0 -77.5 -0.5t-79.5 -0.5h-81zM64 228v-4q0 -6 -0.5 -12t-0.5 -13v-12v-13q-3 -75 2 -113q6 -51 43 -82.5t91 -31.5
q159 -1 309 -1q163 0 315 1q45 1 77 22t48 60q17 43 13 131q-2 43 0 64v5l-24 2v-6q-1 -3 -1 -9q-2 -14 -2 -21v-48q1 -45 0 -68q0 -22 -8.5 -41.5t-22.5 -33.5t-33.5 -22t-41.5 -9h-317h-318q-44 1 -74.5 31.5t-31.5 75.5v67v58q0 4 -1 7.5t-2 8.5q-1 4 -2 6l-1 5zM298 328
l1 -1v-1h1l1 -1l1 -1l1 -1l1 -1h1l1 -1l1 -1l1 -1l1 -1h1l1 -1l1 -1l1 -1l1 -1h1l1 -1l1 -1l1 -1l1 -1h1l1 -1l1 -1v-1l1 -1h1l1 -1l1 -1l1 -1l1 -1h1l1 -1l1 -1l1 -1l1 -1h1l1 -1l1 -1l1 -1l1 -1h1l1 -1l1 -1l1 -1l1 -1h1v-1l1 -1l1 -1l1 -1h1l1 -1l1 -1l1 -1l1 -1h1l1 -1
l1 -1l1 -1l1 -1h1l1 -1l1 -1l1 -1l1 -1h1l1 -1l1 -1l1 -1v-1l1 -1h1l1 -1l1 -1l1 -1l1 -1h1l1 -1l1 -1l1 -1l1 -1h1l1 -1l1 -1l1 -1l1 -1h1l1 -1l1 -1l1 -1l1 -1h1v-1l1 -1l1 -1l1 -1h1l1 -1l1 -1l1 -1l1 -1h1l1 -1l1 -1l1 -1l1 -1h1l1 -1l1 -1l1 -1l1 -1h1l1 -1l1 -1l1 -1
l1 -1l1 -1h1v-1l1 -1l1 -1l1 -1h1l1 -1l1 -1l1 -1l1 -1h1l1 -1l1 -1l1 -1l1 -1l1 -1h1l1 -1l1 -1l1 -1l1 -1h1l1 -1l1 -1l1 -1l1 -1h1l1 -1l1 -1l1 -1l1 -1l1 -1h1v-1l1 -1l1 -1l1 -1h1l1 -1l1 -1l1 -1l1 -1l1 -1h1l1 -1l1 -1l1 -1l1 -1h1l1 -1l1 -1l1 -1l1 -1l1 -1h1l1 -1
l1 -1l1 -1l1 -1h1l1 -1l1 -1l1 -1l1 -1l1 -1h1l1 -1l1 -1l1 -1l1 -1l1 -1h1l1 -1l1 -1l1 -1l1 -1l1 -1h1l1 -1l1 -1l1 -1l1 -1l1 -1h1l1 -1l1 -1l1 -1l1 -1l1 -1h1l1 -1l1 -1l1 -1l1 -1l1 -1h1l1 -1l1 -1l2 -2v498h4h4h4v-487q5 -2 10 -5q34 30 102.5 89.5t102.5 89.5
q2 -1 3 -2.5t2 -2.5t3 -2q-14 -17 -15 -18q-7 -7 -30.5 -27.5t-33.5 -29t-30.5 -26.5t-33.5 -29.5t-30.5 -26.5t-33.5 -28q-4 -3 -11 -5t-14.5 -2t-10.5 3q-54 44 -205 172q-1 0 -6 10q3 4 7 7zM514 131q-10 0 -15 4q-59 48 -174 145q-5 5 -8 7.5t-7.5 6t-8.5 7t-8 6.5
q-3 2 -5 8q-1 3 -2 4l-2 3l13 13l207 -174v493h23v-490l4 -1l207 179l14 -14l-3 -4l-5 -5q-6 -9 -10 -13q-8 -7 -26 -23q-37 -32 -57 -49.5t-52 -45t-58 -49.5q-9 -8 -27 -8zM515 643v-502q5 0 11 2t9 4q56 47 166 144q16 14 26 23q3 3 9 11l2 2l-1 1l-204 -178l-16 8v485
h-2zM297 320v0q2 -4 3 -5q10 -9 31 -27q116 -98 174 -145q2 -1 7 -2l-214 180zM514 126q-6 0 -10.5 1.5t-7.5 3.5q-59 48 -174 145q-21 18 -32 27q-4 3 -7 10q-1 2 -1 3l-4 7l19 19l202 -170v487h33v-489l206 179l20 -21l-5 -7l-2 -2q-1 -1 -2 -3q-3 -3 -4 -5t-3 -5l-5 -4
q-9 -8 -26 -23q-110 -97 -166 -144q-6 -4 -14.5 -6.5t-16.5 -2.5zM520 151v-4q3 0 6 1zM514 121q-3 0 -6.5 0.5t-6 1t-5 2t-4.5 2.5q-58 48 -174 145q-21 18 -31 27q-5 4 -9 12q0 2 -1 2l-6 11l26 25l197 -166v481h44v-482l200 174l27 -27l-8 -11q-2 -2 -4 -5
q-7 -10 -13 -15q-9 -8 -26 -22q-110 -97 -166 -145q-7 -5 -16 -7.5t-18 -2.5zM284 322l2 -3q1 -1 2 -4q2 -6 5 -8l14 -12q7 -6 18 -15q115 -98 174 -145q5 -4 15 -4h4q3 0 5.5 0.5t5 1.5t4.5 1.5t4.5 2t3.5 2.5q11 9 21.5 18t21.5 18.5t20.5 17.5t21.5 19l20 17q8 7 21 18.5
t20 17.5l21 18q15 14 26 23q4 4 10 13l5 5l3 4l-14 14l-211 -183v495h-23v-493l-207 174zM515 141v18l24 -12l-12 -4q-3 -1 -6 -1z" />
    <glyph glyph-name="uniE666" unicode="&#xe666;" 
d="M743 10q-4 -2 -7.5 -3t-8 -2t-8 -2t-7.5 -2l-8 -2q-13 -3 -35 -7q-11 -2 -26 -4l-9 -1l6 -44q4 1 10 2q10 2 27 5q23 5 37 10q10 3 20.5 6.5t21.5 8.5q18 8 22 9q8 4 20 11q12 9 17 13q4 3 7 5.5t8 8.5q1 1 3 4t3 4t2.5 3.5t2.5 4.5q1 3 2.5 6.5t2.5 8.5q1 2 1 4v1v1h10
q-2 3 -7 8t-20 17t-30 20q3 -6 4 -9t2 -8t2 -10.5t2 -13.5l7 -1q-1 -1 -1 -2v-2q-1 0 -1.5 -2t-1.5 -3q-1 -2 -7 -9q-10 -9 -11 -10q-4 -3 -15 -9q-10 -5 -18 -8q-3 -2 -10 -4.5t-9 -2.5zM297 10l-13 -35q1 0 1.5 -0.5t3 -1.5t5.5 -2q1 0 5 -1.5t6.5 -2.5t6.5 -2.5t8 -2.5
q1 0 7.5 -2t10.5 -3q9 -2 20 -5q3 -1 21 -4q9 -2 22 -4q2 0 10 -1.5t12 -1.5q2 -1 4.5 -1t4.5 -0.5t4 -0.5h4q3 0 5 -1q5 0 10.5 -0.5t9.5 -1t9.5 -0.5t8.5 -1h15h3q1 0 3 -1l-2 -12l77 46l-68 19l-1 -7h-11q-1 0 -6 0.5t-8 0.5h-11q-7 0 -13.5 0.5t-11.5 0.5q-24 2 -42 4
q-12 2 -21 3q-3 1 -10 2t-10 1q-7 2 -19 4l-16 4q-10 2 -24 7zM391 174l-2 -19q3 1 7 1l9 2l-2 18q-4 -1 -10 -2h-1h-1zM723 159v-3q5 -10 7 -17q1 -3 1 -5l6 -2l9 -4l8 22h-1q-1 1 -3.5 2t-5.5 1q-13 5 -21 6zM420 502q-19 18 -38 15l-3 -2l-1 -5l-7 -40q16 19 50 31h-1v1z
M273 326q3 -3 8 -4.5t8 -1.5h5v2v3v4q-2 31 -3.5 78t0.5 45l1 -2l1 -1l4 -69q2 -27 3 -54q1 -7 2 -15v-2v-1q1 -7 5 -14l2 -11l4 -18l3 -18l7 -1l11 -81l3 -21q4 1 8 5l4 10l2 15l3 34l3 -36l1 -12l5 -11q1 -2 3 -3l4 -2l3 21l10 70q-10 6 -12 17l-1 1q-4 21 -9 91.5
t-3 92.5q1 11 5 21l-3 36l2 6l-2 4l-1 4h-7l-2 -4l-2 -4l2 -5l-6 -56v-3l-15 72l-1 9h-3q-20 -4 -35 -15q-21 -15 -22 -38v-32q0 -22 1 -53t3 -46q0 -3 1 -7zM291 312l-17 4v-1q1 -1 1 -3.5t1 -5.5v-4q1 -3 2 -5t2 -3l3 -3q6 2 6 8q0 4 1 4q1 -1 1 -3q0 -4 3 -7l1 2
q-1 17 -4 17zM313 519q11 5 14 6l-1 1v3t-0.5 4t-1.5 5v8q-1 3 -1.5 7t-0.5 8q8 -27 21 -37q2 -1 4 -1.5t3.5 -1t3.5 -1.5q8 0 15 5q15 11 19 42v-9v-10q0 -4 -0.5 -7.5t-1 -6.5t-0.5 -5t-1 -3v-1q3 -1 14 -6q21 -8 26 9q-1 2 -6 0.5t-9 6t-1 22.5q5 29 -9 58q-12 27 -45 24
h-1q5 3 9 4h-1h-3h-5q-2 0 -6 -1l-6 -2q-4 -1 -7.5 -2.5t-7.5 -3.5l-9 -9q-1 -1 -2 -1h1q-4 -5 -5 -9q-6 -12 -8.5 -23t-2 -18t1.5 -17q2 -10 1 -16t-3.5 -8.5t-5.5 -3.5t-6 -1h-2l2 -4q1 -2 7.5 -6t16.5 1zM364 132q1 -4 2 -7t2 -3q7 -5 10 -2v3l-6 14q-3 1 -6 5
q-2 3 -4 6.5t-4 8.5v-3v-9q0 -6 2 -12l2 -8v1l2 9v-3zM348 133q1 6 1.5 12t-0.5 9v3q-1 -4 -3 -8t-4 -6l-4 -3q-1 -2 -2 -2l-1 -1l-6 -14q-1 -4 4 -3q4 0 6 2l4 13l2 -9h1q1 3 2 7zM665 520l-1 9h-3q-20 -4 -35 -15l-9 -8q36 -12 58 -34zM718 529l-3 -3l-1 -4l-12 -76l-6 59
l2 7l-2 4l-1 3h-7l-2 -3l-1 -4l1 -6l-4 -41l6 -12l1 -1v-2q3 -13 -3 -80t-11 -106q-1 -6 -2 -11q-2 -11 -11 -18l8 -59l3 -20q4 1 8 4l5 11l1 14l3 35l3 -37l1 -12q2 -8 5 -11q1 -1 3 -2v-1l4 -1l3 20l11 82l5 1l3 20l4 26l1 3q4 4 6 12v1v1l0.5 1.5t0.5 2.5v4v4q0 3 0.5 6
t0.5 6q0 2 0.5 5t0.5 5v6v6l5 90v1l1 1l2 4q5 8 0 -114v-9q1 -1 3 -1t4.5 0.5t5 2t5.5 2.5q0 1 1 2v6q4 33 5.5 76.5t-3.5 63.5q-1 8 -15 21q-9 8 -18.5 12.5t-19.5 2.5zM751 321l1 2l1 -4q0 -2 0.5 -3.5t2 -2.5t3.5 -1q3 0 5 6.5t3 12.5l1 6l-17 -4q-3 -1 -5 -18q0 -2 1 -2
zM649 531q5 2 8.5 3.5t4.5 1.5l1 1q-1 1 -1.5 4.5t-2 13t-1.5 18.5q8 -28 21 -37q5 -4 11 -4q8 0 15 5q15 11 19 41v-13q0 -6 -0.5 -11t-1 -9t-0.5 -6l-1 -2q3 -1 14 -6q11 -4 16.5 -2t7.5 7l2 4q-1 1 -6 0t-9 6.5t-1 22.5q1 9 1.5 16.5t-2 18t-7.5 22.5q-7 16 -20 21t-26 4
h-1q4 2 9 4q-19 1 -36 -10q-4 -3 -9 -8l-2 -2h1q-3 -4 -6 -9q-13 -28 -8 -57q3 -15 -1 -22.5t-10 -6.5h-5q0 -2 1.5 -4.5t8 -6.5t16.5 2zM700 144l4 -11q9 -4 10 2l-6 14q-3 1 -6 5q-5 5 -8 15q-2 -11 2 -24l2 -8v1l2 8v-2zM684 145q0 2 0.5 5t0.5 5t0.5 4.5t0 4t-0.5 2.5v2
v1q-1 -5 -3 -8.5t-4 -5.5l-4 -3l-2 -3h-1q-4 -8 -6 -14q-1 -4 4 -4l6 2l4 13l2 -8q1 1 1 0q0 1 2 7zM619 216q2 1 2.5 3t1.5 3v1q0 5 2 2q1 0 1 -2v-1q0 -5 2.5 -7.5t7.5 -1.5q4 0 6.5 3.5t4.5 8.5v3l3 14l-27 -5q-3 0 -4.5 -5.5t-2.5 -14.5q0 -3 1 -3t2 2zM418 221q0 1 1 1
v1q1 4 2 2l1 -2v-1l1 -3q5 -10 6 -5v2q-1 4 -1 7t-1 6.5t-2.5 5.5t-2.5 2l-27 5q0 -7 2 -15q1 0 1 -1v-1q1 -2 2 -4.5t2.5 -4.5t3 -3t3.5 -1q4 0 6 1t2.5 3t0.5 5zM427 247q-2 22 -5 95.5t-1 71.5q1 -1 2.5 -2t2.5 -2l5 -83q2 -22 4 -43.5t3 -31t1 -11.5v-1q3 -8 9 -17
l14 -185l38 1l17 144h1h3h4l19 -145h36l14 182q3 5 5.5 10t4.5 10v1v4q3 27 5 53l7 109h1v1l5 6q2 3 2 -34.5t-1 -79t-2 -52.5q3 -2 7.5 -1.5t10 2t12.5 4.5q5 24 12 106t5 92q-3 10 -36.5 27.5t-61.5 13.5l-6 -3l-21 -96l-9 71l3 8l-5 9h-12l-5 -9l3 -6l-10 -68v-4l-27 99
h-1h-3q-96 -14 -98 -51q-1 -7 1 -46.5t5.5 -83t6.5 -59.5q12 -7 35 -6zM465 589q-5 0 -5 -21v-6q0 -3 0.5 -6t1 -4.5t1.5 -3t2 -1.5q2 0 3 6q4 -17 15 -31.5t22 -22.5t20 -8q7 0 14 3t13.5 8.5t12.5 13t10 18t5 21.5q1 -7 4 -7q1 0 2 3t2 8t1 10q0 21 -5 21q-1 0 -2 -1
q1 4 1 6t-0.5 5.5t-0.5 6.5q-9 -7 -41 9q-5 2 -7 3q4 -1 7 -3q9 -5 17.5 -5t13.5 3t8.5 7t4.5 7l2 4q-2 2 -5 4.5t-13.5 8.5t-21.5 8.5t-29 0.5t-36 -11q-1 -1 -3.5 -2.5t-4.5 -3t-4 -3.5t-4 -3.5t-4 -1.5h14q-12 -7 -10 -30v-5q0 -2 -1 -5zM463 32l-5 -3q-10 -7 -14 -12.5
t7 -8.5q16 -2 32 10q2 3 3 2l1 -2h2q5 0 6 1q1 5 1 9v3v1h-33zM548 19l8 -1l1 2q1 1 3 -2q8 -6 15 -8.5t17 -1.5q11 3 7 8t-14 13l-5 3h-33v-1v-3v-2q0 -2 0.5 -3.5t0.5 -3.5zM248 19q-10 22 -14 50h-10v1v1v2q1 1 1.5 3t1.5 3q0 1 6 10q1 0 2 1q5 7 9 9q3 3 15 11q1 1 3 2
q9 5 14 8q2 1 19 8q8 4 21 8l2 4l2 3v1v1l-2 15q-15 -4 -31 -10q-2 0 -9 -3l-13 -5q-3 -1 -7 -3l-6 -3q-2 -1 -7 -3q-1 -1 -5.5 -3.5t-7 -4.5t-5.5 -4q-5 -3 -13 -11q-1 -2 -1.5 -2.5t-2.5 -1.5q-6 -8 -9 -13q-2 -3 -3.5 -6.5t-2.5 -8.5q-1 -2 -1 -4v-1q0 -2 -1 -3l-17 1
l2 -1l3 -3l5 -5q3 -3 7 -6.5t8.5 -7t10 -7.5t11.5 -7.5t12.5 -7.5t12.5 -7zM655 162l-1 11q-11 1 -16 2h-1l-3 1v-1q-12 1 -18 2l-1 -15q3 -1 8.5 -2t9.5 -1l-1 -4q3 1 9 2q9 -1 14 -2l1 1v0l-1 4q1 0 2 1z" />
    <glyph glyph-name="uniE667" unicode="&#xe667;" 
d="M685 464h-345q-20 0 -34.5 14.5t-14.5 34.5v128q0 13 6.5 24t18 17.5t24.5 6.5h59q5 43 37.5 71t75.5 28t75.5 -28t38.5 -71h59q13 0 24 -6.5t17.5 -17.5t6.5 -24v-128q0 -20 -14 -34.5t-34 -14.5zM340 642l-2 -1v-128q0 -2 2 -2h345q1 0 1 2v128q0 1 -1 1h-108l2 26
q1 3 1 6q0 28 -20 47.5t-48 19.5q-18 0 -33.5 -9t-24.5 -24.5t-9 -33.5v-3v-3l2 -26h-107zM312 49h399v-47h-399v47zM312 199h399v-47h-399v47zM312 349h399v-47h-399v47zM816 -156h-611q-24 0 -41.5 17.5t-17.5 41.5v638q0 16 8 29.5t21.5 21.5t29.5 8h84v40
q0 20 14.5 34.5t34.5 14.5h59q2 12 6 23t10 21t14 18.5t17.5 15.5t20 11.5t22.5 7t24 2.5q21 0 41 -7.5t35 -20.5t25 -31.5t13 -39.5h59q20 0 34.5 -14.5t14.5 -34.5v-40h83q25 0 42 -17.5t17 -41.5v-638q0 -36 -32 -53q-13 -6 -27 -6zM205 552q-4 0 -7.5 -3.5t-3.5 -7.5
v-638q0 -5 3.5 -8.5t7.5 -3.5h611q5 0 8.5 3.5t3.5 8.5v638q0 3 -1.5 5.5t-4 4t-6.5 1.5h-131v88v2h-1h-108l2 25q1 4 1 6q0 28 -20 48t-48 20q-11 0 -21.5 -3.5t-18.5 -9.5t-14.5 -14.5t-10 -19t-3.5 -21.5v-6l3 -25h-108q-2 0 -2 -2v-88h-131z" />
    <glyph glyph-name="uniE668" unicode="&#xe668;" 
d="M821.5 -31q-21.5 0 -36.5 15t-15 37v558q0 22 15 37t36.5 15t36.5 -15t15 -37v-558q0 -22 -15 -37t-36.5 -15zM615 -31q-21 0 -36 15t-15 37v418q0 15 6.5 27t18.5 19t26 7q6 0 12 -1.5t11 -4t9.5 -6t8 -8t6 -10t4 -11t1.5 -12.5v-418q0 -14 -7 -26t-19 -19t-26 -7z
M409 -31q-22 0 -37 15t-15 37v279q0 14 7 26t19 19t26 7t26 -7t18.5 -19t6.5 -26v-279q0 -14 -6.5 -26t-18.5 -19t-26 -7zM202.5 -31q-21.5 0 -36.5 15t-15 37v140q0 21 15 36.5t36 15.5q14 0 26 -7t19 -19t7 -26v-140q0 -22 -15 -37t-36.5 -15z" />
    <glyph glyph-name="uniE669" unicode="&#xe669;" 
d="M574 426q11 12 17.5 27t6.5 31q0 34 -24 57.5t-57 23.5q-16 0 -31.5 -6t-26.5 -18q-24 -23 -24 -57q0 -16 6.5 -31t17.5 -27q24 -23 58 -23q10 0 20.5 2.5t20 8t16.5 12.5zM511 -63q25 0 40 20q42 56 83 114.5t91.5 139t81.5 154.5t31 123q0 43 -12 84.5t-33 77t-51 65
t-66 50.5t-78.5 32.5t-86.5 11.5q-67 0 -127.5 -25.5t-104 -68.5t-69.5 -102.5t-26 -124.5q0 -49 31 -123t81.5 -154.5t91 -139t83.5 -114.5q15 -20 40 -20zM510.5 750q110.5 0 189 -77t78.5 -185q0 -59 -65.5 -180.5t-179.5 -275.5q-2 -4 -5.5 -6.5t-8 -3.5t-8.5 -1
q-14 0 -23 11q-75 102 -130 191.5t-84.5 157.5t-29.5 107q0 108 78 185t188.5 77zM915 -11q-24 24 -62 37q-12 5 -26 8t-28 4.5t-30 1.5h-3l-5 -1q-10 -1 -17.5 -8.5t-7.5 -18.5q-1 -11 7 -20t20 -9l33 -1h2q52 -7 78 -33q12 -11 12 -20q0 -2 -1 -4t-3 -4.5t-4.5 -5.5t-7 -6
t-10 -6.5t-13 -6.5t-16 -6.5t-19.5 -7t-23 -6.5q-110 -28 -282 -28q-42 0 -81.5 1.5t-75 5.5t-68 9t-59.5 12q-18 5 -34 10.5t-26 10.5t-18 9.5t-12 9t-6 8t-2 5.5q0 19 15 29q22 15 73 20q1 -1 5 -1h1q1 0 3 0.5t4 0.5h6q2 0 5 0.5t5 0.5h4h3h1q12 1 20 9.5t7 20.5
q0 6 -2.5 10.5t-6.5 8t-9.5 6t-11.5 2.5q0 -1 -4 -1q-92 -2 -134 -30q-40 -27 -40 -76q0 -40 44 -69q35 -23 96 -38q119 -31 298 -31q57 0 110.5 3.5t100.5 10.5t85 16q60 16 95 38q11 8 19 16t13.5 16.5t8.5 18t3 19.5q0 16 -7.5 31t-21.5 29z" />
    <glyph glyph-name="uniE66A" unicode="&#xe66a;" 
d="M512 783q-98 0 -187.5 -38t-154.5 -102.5t-103 -154t-38 -188t38 -188t103 -154t154.5 -103t187.5 -38.5q78 0 152 24.5t133.5 69.5t104 104t69 133t24.5 152q0 66 -17.5 128.5t-48.5 115.5t-75.5 97.5t-97.5 76t-116 48.5t-128 17zM512 -115q-113 0 -208.5 55.5
t-151 151.5t-55.5 208.5t55.5 208t151 151.5t208.5 56t208.5 -56t151 -151.5t55.5 -208t-55.5 -208.5t-151 -151.5t-208.5 -55.5zM754 551l-5 19l-20 5q-1 0 -2 0.5t-4.5 1t-7.5 1t-9.5 1t-12 1t-13.5 0.5q-131 0 -244 -106h-10q-15 0 -31.5 -2t-43.5 -12t-48.5 -26.5
t-41.5 -49t-28 -76.5l-26 -130l85 102q22 26 48 31l-19 -40l130 -130l39 20q-1 -9 -5.5 -18t-10.5 -15.5t-9 -9.5l-5 -5l-102 -85l130 25q44 9 77 29t49.5 42t26 49.5t11.5 46t1 36.5q61 66 85.5 142t22 105t-6.5 48zM594 293l-12 -12l3 -18q9 -57 -26 -99q1 31 -17 59
l-25 26l-53 -26l-61 62l25 53l-20 21l-6 4q-27 17 -58 17q32 27 82 27q10 0 17 -1l17 -3l12 12q39 39 82.5 62.5t71.5 29t54 5.5h11q1 -18 -1.5 -39t-11 -50.5t-30 -63.5t-54.5 -66zM343 224l-60 -132l12 -12l132 60z" />
    <glyph glyph-name="uniE66B" unicode="&#xe66b;" 
d="M682 258h7l146 124l-3 18l-286 286l-143 -145zM355 591l147 139l-104 105l-43 2l-106 -106l7 -40zM879 187l32 -11l-13 47l-42 100l-101 -83zM870 116h-721q-8 0 -15.5 -3.5t-13 -8.5t-8.5 -12.5t-3 -15.5q0 -17 12 -28.5t28 -11.5h721q11 0 20.5 5t14.5 14.5t5 20.5
q0 8 -3 15.5t-8.5 12.5t-12.5 8.5t-16 3.5zM149 216h401q16 0 28 11.5t12 28.5q0 8 -3.5 15.5t-8.5 13t-12.5 8.5t-15.5 3h-401q-3 0 -6 -0.5t-6 -1.5t-6 -2.5t-5.5 -3t-4.5 -4.5l-4 -4q-2 -3 -3.5 -5.5t-2.5 -5.5t-1.5 -6.5t-0.5 -6.5q0 -17 12 -28.5t28 -11.5z" />
    <glyph glyph-name="uniE66C" unicode="&#xe66c;" 
d="M512 896q-104 0 -199 -40.5t-163.5 -109t-109 -163.5t-40.5 -199t40.5 -199t109 -163.5t163.5 -109t199 -40.5t199 40.5t163.5 109t109 163.5t40.5 199t-40.5 199t-109 163.5t-163.5 109t-199 40.5zM826 477l-338 -339q-20 -20 -48.5 -20t-48.5 21v0l-193 192
q-20 21 -20 49t20 48q10 10 23 15t26 5t25.5 -5t22.5 -15l145 -145l289 290q20 20 48.5 20t48.5 -20t20 -48.5t-20 -47.5z" />
    <glyph glyph-name="uniE66D" unicode="&#xe66d;" 
d="M817 172q-13 -11 -48 -38.5t-76.5 -58t-81 -59.5t-65.5 -48l-26 -19v111q-113 0 -209 50t-151.5 136t-55.5 187.5t55.5 188t151.5 136.5t209 50q42 0 83.5 -7.5t78 -21.5t70.5 -34.5t62 -46t50.5 -55.5t38 -63.5t24 -70.5t8.5 -75q0 -75 -31 -142.5t-87 -119.5zM298 475
q-23 0 -39.5 -16t-16.5 -39q0 -9 3 -17.5t8 -15.5t12 -12t15.5 -8t17.5 -3q23 0 39 16.5t16 39.5t-16 39t-39 16zM520 475q-15 0 -28 -7.5t-20.5 -20t-7.5 -27.5q0 -23 16.5 -39.5t39.5 -16.5q15 0 27.5 7.5t20 20.5t7.5 28q0 23 -16 39t-39 16zM741 475q-23 0 -39 -16
t-16 -39t16 -39.5t39 -16.5t39.5 16.5t16.5 39.5t-16.5 39t-39.5 16z" />
    <glyph glyph-name="uniE66E" unicode="&#xe66e;" 
d="M868 245q29 0 45 46q19 55 -1 94q-14 27 -44 28h-168q27 45 46 85t27.5 70.5t11.5 56.5t0 44t-10 32.5t-16.5 23t-20.5 14.5t-20 8t-18 2q0 -68 -61.5 -142t-157 -132t-201.5 -90v-448h-56v448h56v28h-112q-23 0 -39.5 -24.5t-16.5 -59.5v-336q0 -14 2.5 -27t8 -23
t12.5 -18t15.5 -12t17.5 -4h112v28q48 -5 84 -12.5t57 -15.5t38.5 -16t34.5 -15t38.5 -13t56.5 -9t83 -3q29 0 54 9t41.5 28.5t16.5 46.5q35 0 56 59q19 52 8 75q-4 5 -8 6q27 0 46.5 42t15.5 84t-34 42zM868 245z" />
    <glyph glyph-name="uniE66F" unicode="&#xe66f;" 
d="M627 548q-7 -19 -28 -42l-90 -97l-59 -63l-29 -32q-12 -11 -20.5 -25t-13 -31t-4.5 -34q0 -261 88 -343q-130 15 -218.5 113t-88.5 230q0 75 30.5 141.5t84.5 114.5l70 75l160 173l90 -97l13 -15q5 -5 11 -13.5t7.5 -15.5t1.5 -16.5t-4 -20.5q0 -1 -1 -2zM825 362
q29 -66 29 -138q0 -93 -46 -172.5t-125.5 -126t-172.5 -46.5h-1q-19 0 -38 2q-88 82 -88 343q0 -34 17 -63.5t46 -46.5t63 -17q21 0 41 7q11 4 21 9v1h1q226 131 253 248zM627 548h1q59 -22 107 -64t78 -97q3 -7 6.5 -13t5.5 -12q-27 -117 -253 -248h-1v-1q26 15 43 40.5
t21 55.5q1 7 1 15q0 53 -39 90l-9 10l-20 22l-59 63l90 97q21 23 28 42zM840 362l-2 4q-3 6 -6 12.5t-7 12.5q-61 115 -181 163q0 12 2 18t-2 15.5t-5.5 14t-8 13t-10 12t-10.5 11.5l-99 107l-239 -257q-56 -50 -87 -118q-15 -34 -23.5 -71.5t-8.5 -75.5q0 -137 92 -239
q90 -99 222 -116h4q12 -2 25 -2l12 -1l-1 1h2h2q97 0 179 48t130 130t48 179q0 72 -28 139zM288 470h1l222 239l81 -87q9 -10 13 -14.5t9 -12t6 -13t1 -13t-3 -15.5l-1 -2v-1v-1l-1 -1q-3 -8 -9 -17t-16 -19l-89 -96l-59 -64l-29 -31q-42 -41 -42 -99v-5v-1q-1 -85 10 -155
q0 -2 0.5 -4t0.5 -4v-2q1 -3 1 -5q0 -1 1 -3q0 -3 1 -5v-1v-2l1 -4v-1q1 -1 1 -2t0.5 -2.5t0.5 -2.5v-2l2 -7v-2q1 -1 1 -2.5t1 -2.5v-2q1 -2 1 -3t0.5 -2t1 -2.5t0.5 -3.5v-1q1 -1 1 -2l1 -4v-1q1 -1 1 -2q1 -2 2 -5v-1l2 -6v-1l1 -1q1 -3 1 -4t1 -2q1 -2 1 -4q1 -1 1 -2
q1 -1 1 -2t1 -2v0q0 -2 1 -2q0 -2 1 -4v-1h1v-1l2 -5l1 -1q1 -3 2 -5v-1l1 -1l1 -3q1 -1 1 -2q1 -2 2 -3t1 -2q1 -1 2 -3v-1l1 -1l2 -4v-1h1l2 -5h1v-1l2 -3l1 -1v-1l2 -1v-2q1 0 1 -0.5t1 -1.5q-114 24 -188 115.5t-74 209.5q0 70 29 135t81 112zM734 237zM625 223
q0 -7 -1 -14q-7 -57 -58 -86q-9 -5 -19 -8q-3 -2 -7 -3l-8 -2h-6q-4 -1 -8 -1h-7q-48 0 -81.5 33.5t-33.5 80.5q0 23 9 44t26 38l30 32l50 53l79 -85q17 -17 26 -38t9 -44zM814 359v-1h-1v-2l-1 -2v-1q-1 -1 -1 -3v-1q-1 -1 -1 -2v-1q-1 -2 -2 -3v-1q-1 -2 -1 -3l-1 -1v-2
l-1 -1q0 -1 -1 -1v-1l-1 -2v-1l-1 -1v-1q-1 -2 -2 -3l-2 -4v-1l-2 -2v-1l-2 -3v-1l-2 -2v-1q-1 -2 -2 -3l-1 -1q-1 -1 -2 -3l-2 -4h-1q-1 -2 -2 -3v-1l-2 -1v-2l-1 -1l-2 -2l-1 -1q-1 -2 -2 -3v-1l-2 -2q-1 -1 -2 -2.5t-2 -2.5l-1 -1l-2 -2l-1 -1q-1 -2 -2 -3l-1 -1l-3 -3
v-1q-2 -1 -3 -3h-1q-1 -2 -3 -4l-3 -3l-1 -1l-1 -2l-2 -1l-1 -1l-3 -2l-1 -1q0 -1 -1 -1.5t-1 -1.5l-1 -1q-3 -2 -4 -3v-1q-2 -1 -4 -3v-1l-4 -3l-1 -1q-1 -1 -3 -2l-1 -2q-2 -1 -3 -2l-1 -1q-2 -1 -4 -3l-1 -1q-2 -2 -4 -3.5t-4 -3.5l-1 -1q-2 -1 -4 -3l-1 -1q-2 -1 -3 -2
l-2 -1q0 -1 -1 -1.5t-2 -1.5l-1 -1q-2 -1 -4 -3h-1q-2 -2 -4.5 -4t-5.5 -4h-1l-3 -3l-2 -1l-3 -3l-2 -1q-2 -1 -3 -2l-2 -2q-1 0 -2 -0.5t-2 -1.5l-1 -1l-6 -4q-2 -1 -5 -3l-2 -1v-1h-1q3 6 5.5 13t4 13.5t1.5 13.5q1 9 1 17q0 58 -41 99l-81 86l82 88l3 3l1 1q1 1 1 2l1 1
l2 2l1 1q0 1 1 2l1 1q1 1 2 3h1q0 1 1 2l1 1q0 1 1 1v1l1 1q0 1 1 2h1q0 2 1 3l2 3q1 1 2 3v1l1 1q112 -45 169 -151l4 -7q1 -3 2.5 -6.5t3.5 -6.5v-1zM456 -82q-1 2 -2 3.5t-2 3.5l-2 3v1l-2 2l-1 1q-1 2 -1 3v1l-2 3l-4 8v1q-1 1 -2 3v1q-1 1 -2 3v1q-1 2 -2 3v1l-2 4
q-1 4 -3 9l-2 4v1q0 2 -1 4v1l-2 4q-2 7 -4 15q-1 1 -1 2.5t-1 2.5v1q0 2 -1 4v1q-1 2 -1 4v1q-2 7 -4 15v1q-1 2 -1 5v1q-1 2 -1 4v1l-1 5v1q-1 5 -2 11v1q-1 1 -1 2v3l-1 1v5v1q-1 2 -1 4v2q0 1 -0.5 2.5t-0.5 2.5v1q0 3 -0.5 6t-0.5 6l-1 1v5v2q0 2 -1 4v2v4v2q-1 2 -1 5
v1q0 7 -1 13v2v2q20 -27 49.5 -42.5t63.5 -15.5q22 0 44 7q12 4 23 11q1 0 2 1h1q1 1 4 2q75 42 129 86q3 3 6 5l2 2l2 2q1 1 2 1.5t2 1.5l2 2q1 1 2 1l2 2l2 2l2 2q1 0 1 0.5t1 0.5l4 4l1 1q2 1 3 2.5t2 2.5l1 1q3 2 5 4l1 2q2 2 4 3l1 2q1 1 2 1.5t2 1.5v1l1 1q2 1 3 3
l1 1q1 0 1 1l4 4v1q3 2 5 5l1 1q1 1 1.5 2t1.5 1q0 1 1 2v0l3 3l2 2q1 2 2 3l2 2q1 1 2 4h1v1q2 3 4 5l-3 2l3 -2l3 5l1 1l3 4v1h1l2 3v2l2 2q0 1 1 1v1l1 1l2 4l1 1q0 1 0.5 2.5t1.5 2.5l1 1l2 4v1v0q1 2 2 3q0 1 1 2v1v1q4 -10 6.5 -20t4 -20t3 -20.5t2 -21t0.5 -20.5
q0 -90 -44.5 -166.5t-121 -121.5t-166.5 -45q-9 0 -17 0.5t-16 1.5h-1q-1 1 -1 2h-1v1q-1 0 -2 1q0 1 -1 1l-1 2l-1 1l-2 2l-2 2v1l-1 1l-2 2v1q-1 0 -1 0.5t-1 1.5l-1 1q0 1 -1 2l-1 1q-1 1 -1 2z" />
    <glyph glyph-name="uniE670" unicode="&#xe670;" 
d="M1013 -100l-198 198q84 118 84 263q0 61 -16 119t-45 107.5t-70.5 91t-90.5 70.5t-107.5 45t-119.5 16q-91 0 -174.5 -35.5t-143.5 -95.5t-95.5 -143.5t-35.5 -174.5q0 -73 22.5 -141.5t64 -124t97 -97t124 -64t141.5 -22.5q145 0 263 84l198 -198q11 -11 26 -11t25 11
l51 51q5 4 7.5 9t3 10.5t0 11t-3 10.5t-7.5 10zM129 361q0 87 43 161t117 117t161 43q33 0 65 -6.5t60 -19t54 -30t48 -39t39.5 -47.5t29.5 -54.5t18.5 -60t6.5 -64.5q0 -87 -43 -161t-117 -117t-161 -43t-161 43t-117 117t-43 161z" />
    <glyph glyph-name="uniE671" unicode="&#xe671;" 
d="M511 830q-121 0 -224 -60t-162.5 -163t-59.5 -224q0 -91 35.5 -173.5t95 -142.5t142.5 -95.5t173.5 -35.5t173.5 35.5t142.5 95.5t95 142.5t35.5 173.5t-35.5 173.5t-95 142.5t-142.5 95.5t-174 35.5zM782 112q-36 -36 -79.5 -61t-92 -38t-99.5 -13q-76 0 -146 29
t-124 83q-36 36 -61 79.5t-38 92t-13 99.5q0 77 29 146.5t83 124.5q27 27 58.5 48t65.5 35t71 21.5t75 7.5q77 0 147 -29t124 -83q36 -36 61 -79.5t38 -92t13 -99.5q0 -77 -29 -146.5t-83 -124.5zM511 129zM447 129q0 27 19 45.5t45 18.5t44.5 -18.5t18.5 -45t-18.5 -45
t-44.5 -18.5q-10 0 -20 3t-17.5 9t-13.5 14t-9.5 17.5t-3.5 19.5zM575 322v318v0v1q0 26 -18.5 44.5t-45 18.5t-45 -18.5t-18.5 -44.5v-319v-1q0 -26 18.5 -45t45 -19t45 19t18.5 45v1z" />
    <glyph glyph-name="uniE672" unicode="&#xe672;" 
d="M767 533.5q0 15.5 -11 26t-26.5 10.5t-26.5 -10.5t-11 -26t11 -26.5t26.5 -11t26.5 11t11 26.5zM565 660q-16 0 -26.5 -11t-10.5 -26.5t10.5 -26.5t26 -11t26.5 11t11 27q0 10 -5 18.5t-13.5 13.5t-18.5 5zM251 496q-10 0 -19 -5t-14 -13.5t-5 -19.5q0 -15 11 -26t27 -11
q7 0 14 3t12 8t8 12t3 14.5t-3 14.5t-8 12t-12 8t-14 3zM385.5 630q-15.5 0 -26.5 -11t-11 -26q0 -10 5 -19t13.5 -14t19 -5t19 5t13.5 14t5 19q0 15 -11 26t-26.5 11zM527.5 764q-91.5 0 -174.5 -35t-143 -95t-95.5 -143t-35.5 -174v-30h274l145 -418h30q91 0 174 35.5
t143 95.5t95.5 143t35.5 174t-35.5 174t-95.5 143t-143 95t-174.5 35zM251 391q-19 0 -34.5 9t-24.5 24.5t-9 33.5q0 28 20 48t48 20t47.5 -20t19.5 -47.5t-19.5 -47.5t-47.5 -20zM385 526q-13 0 -25.5 5t-21.5 14t-14.5 21.5t-5.5 26.5q0 28 20 47.5t47 19.5q19 0 34.5 -9
t24.5 -24.5t9 -33.5t-9 -33.5t-24.5 -24.5t-34.5 -9zM565 555q-28 0 -47.5 20t-19.5 48q0 7 1 13.5t3.5 12.5t6.5 11.5t8.5 10t10 8t11.5 6t12.5 4t13.5 1.5q14 0 26.5 -5.5t21.5 -14.5t14 -21.5t5 -25.5q0 -8 -1.5 -15.5t-5 -14.5t-8 -12.5t-10.5 -10t-12.5 -8t-14 -5.5
t-15.5 -2zM662 533q0 18 9 33.5t24.5 24.5t34 9t34 -9t24.5 -24.5t9 -33.5q0 -28 -20 -47.5t-48 -19.5q-18 0 -33.5 9t-24.5 24.5t-9 33.5zM814 106q-25 -13 -52 -6t-40 31q-9 17 -9.5 34t8.5 33t25 25q24 14 51 6.5t41 -31.5q9 -17 9 -34t-9 -32.5t-24 -25.5zM819 287
q-28 0 -47.5 19.5t-19.5 47.5q0 14 5.5 26.5t14.5 21.5t21.5 14t26 5t26 -5t21.5 -14t14.5 -21.5t5.5 -26.5q0 -28 -20 -47.5t-48 -19.5zM819.5 391q-15.5 0 -26.5 -11t-11 -26t11 -26t26.5 -11t26.5 11t11 26t-11 26t-26.5 11zM761.5 197q-13.5 -8 -17.5 -23t3 -28
q4 -5 8 -9t9.5 -6.5t11.5 -3t11.5 0.5t11.5 4q13 8 17 23t-3.5 28.5t-22.5 17.5t-28.5 -4z" />
    <glyph glyph-name="uniE673" unicode="&#xe673;" 
d="M991 219q-9 85 -21 149t-31.5 124t-46 98t-65.5 60.5t-89 22.5q-30 0 -59 -14t-49.5 -31.5t-48 -33t-53.5 -17.5q-27 2 -54.5 17.5t-48 33t-49.5 31.5t-58 14q-50 0 -89.5 -22.5t-66 -60.5t-46 -98t-31.5 -124t-21 -149q-29 -259 84 -259q25 0 45.5 6.5t35 17.5t27 24
t24 29t22.5 31t26 30t32 25q41 20 168 26q53 -3 98.5 -9t68.5 -17q15 -9 28.5 -22t23.5 -25.5t20.5 -26.5t20 -26.5t21.5 -24t25.5 -20t32 -13.5t40.5 -5q113 0 84 259zM320 243q-33 0 -61 16t-44.5 44t-16.5 61q0 51 36 86.5t86 35.5q33 0 61.5 -16t44.5 -44t16 -62
q0 -50 -35.5 -85.5t-86.5 -35.5zM869 340h-96v-96h-46v96h-96v46h96v96h46v-96h96v-46zM320 364zM251 364.5q0 28.5 20 49t49 20.5q19 0 35 -9.5t25.5 -25.5t9.5 -35q0 -18 -9.5 -34.5t-25.5 -25.5t-35 -9q-29 0 -49 20.5t-20 49z" />
    <glyph glyph-name="uniE674" unicode="&#xe674;" horiz-adv-x="1025" 
d="M177 164q177 -3 290 -50h4l6 1q4 4 4 9v554q0 7 -6 10l-294 117q-6 2 -10.5 -1t-4.5 -9v-620q0 -10 11 -11zM1020 706q-4 4 -9 2l-104 -31q-8 -2 -8 -10v-535q1 -9 -8 -9h-17q-225 0 -342 -67l-20 -12l-20 12q-117 67 -342 67h-21q-4 0 -4 5v539q0 8 -8 10l-104 31
q-5 2 -9 -1.5t-4 -8.5v-648q0 -4 3.5 -7t7.5 -3q68 7 134 7q184 0 280 -51q64 -34 87 -34t87 34q96 51 280 51q66 0 134 -7q4 0 7.5 3t3.5 7v648q0 3 -1 5t-3 3zM547 115q3 -1 6 -1h4q113 47 290 50q11 1 11 11v620q0 3 -1.5 5t-3.5 4q-4 3 -10 1l-294 -117q-6 -3 -6 -10
v-554q0 -6 4 -9z" />
    <glyph glyph-name="uniE675" unicode="&#xe675;" 
d="M512 -144q-115 0 -213 56.5t-154.5 154.5t-56.5 213q0 86 33 164t89.5 135t134.5 91t164 35q3 1 13 7q12 7 19 11t20 9t25 7q8 2 15 -0.5t12 -8.5t7 -14q2 -12 -5 -22t-19 -12q-14 -2 -45 -20q-9 -6 -14 -8.5t-12 -5t-13 -2.5q-99 0 -183.5 -49t-133.5 -133.5t-49 -183.5
t49 -183.5t133.5 -133.5t183.5 -49t183.5 49t133.5 133.5t49 183.5q0 144 -98 249q-15 17 -51 134q-22 -23 -40 -39t-30.5 -24t-22 -12.5t-17 -4t-10.5 1.5t-8 4q-11 6 -14 17.5t2 21.5q2 4 5.5 7.5t7.5 5t8 2.5t9 0q12 6 41.5 34.5t58.5 61.5q4 4 8.5 6.5t9.5 3.5t10 0
q17 -4 22 -20q43 -142 56 -162q35 -38 60 -84.5t38 -97.5t13 -105q0 -58 -15 -112.5t-42.5 -101.5t-66.5 -86t-85.5 -66.5t-101.5 -42.5t-113 -15zM523 38q-83 0 -139.5 43.5t-66.5 114.5h-26q-12 0 -20.5 8.5t-8.5 20.5q0 8 4 14.5t10.5 10.5t14.5 4h53q12 0 20.5 -8.5
t8.5 -20.5q0 -63 44 -96t106 -33q14 0 28 2t27 5.5t25.5 9.5t23 14t19 18t15 22t9.5 27t3 31q0 12 8.5 20.5t20.5 8.5h52q12 0 20.5 -8.5t8.5 -20.5q0 -6 -2.5 -11.5t-6.5 -9.5t-9 -6t-11 -2h-25q-13 -91 -97 -134q-49 -24 -109 -24zM419 377.5q0 -20.5 -15 -35t-35.5 -14.5
t-35 14.5t-14.5 35t14.5 35t35 14.5t35.5 -14.5t15 -35zM722 378q0 -8 -2.5 -16t-7 -14t-11 -10.5t-14 -7t-15.5 -2.5q-21 0 -35.5 14.5t-14.5 35t14.5 35t35.5 14.5q14 0 25.5 -6.5t18 -18t6.5 -24.5z" />
    <glyph glyph-name="uniE676" unicode="&#xe676;" horiz-adv-x="1276" 
d="M795 798q137 -76 219 -212t82 -298t-82 -298t-219 -212q99 6 188 48.5t153 110t101.5 159.5t37.5 192q0 67 -17 131t-47.5 118.5t-74.5 101.5t-97 80.5t-115.5 54t-128.5 24.5zM410 458q-13 -13 -13 -30q0 -6 2 -12t5 -10.5t8 -8.5q16 -11 40 -17l5 -1v98q-7 -1 -19 -4
q-15 -3 -28 -15zM594 233q-14 9 -28 12l-8 1v-104h9q6 0 23 6q5 2 10 4.5t8.5 6t5.5 6.5q7 11 7 27q-1 7 -2.5 13t-4.5 10.5t-8 9t-12 8.5zM512 800q-139 0 -257 -68.5t-186.5 -186.5t-68.5 -257t68.5 -257t186.5 -186.5t257 -68.5t257 68.5t186.5 186.5t68.5 257t-68.5 257
t-186.5 186.5t-257 68.5zM749 187q-1 -21 -6.5 -40t-16.5 -35q-22 -34 -55 -52q-34 -19 -62 -25q-13 -3 -24.5 -4t-20.5 -1h-6v-49l-100 -24l-1 76q-2 1 -6 1.5t-13 1.5q-15 2 -37 9q-21 7 -49 24t-49.5 47t-27.5 66l-6 36h134q1 -13 4 -26q1 -4 3 -8t4.5 -8t6.5 -8
q12 -12 30 -18l6 -2v119q-9 1 -13 2l-14 3l-50 9q-44 10 -67.5 28t-33.5 36q-3 6 -5.5 12.5t-4 13t-2.5 12.5q-2 12 -2 33v6v6v6v8q2 39 29 71t61 48q11 5 23 9t24 7t25 5l24 4l6 1v75h101v-77q3 -1 15 -2t40 -9t51 -22.5t41 -38t22 -44.5l10 -41h-137q-1 9 -3 17q-1 4 -4 8
t-8 8q-10 8 -19 11l-8 2v-114h1q12 -2 23 -4q18 -2 54 -14q35 -11 61 -32t40 -51q12 -28 12 -65v-7v0z" />
    </font>
</defs>
</svg>
